<?xml version="1.0" encoding="UTF-8"?>
<svg width="2880px" height="2056px" viewBox="0 0 2880 2056" version="1.1" xmlns="http://www.w3.org/2000/svg" xmlns:xlink="http://www.w3.org/1999/xlink">
    <!-- Generator: Sketch 62 (91390) - https://sketch.com -->
    <title>slide-1 copy</title>
    <desc>Created with Sketch.</desc>
    <defs>
        <rect id="path-1" x="0.417058179" y="0" width="2880" height="2056"></rect>
        <linearGradient x1="50%" y1="0%" x2="50%" y2="100%" id="linearGradient-3">
            <stop stop-color="#FFFFFF" offset="0%"></stop>
            <stop stop-color="#E5FFF1" offset="100%"></stop>
        </linearGradient>
        <rect id="path-4" x="0.417058179" y="0" width="2880" height="857"></rect>
        <path d="M150.5,88.1301708 C146.612206,187.268638 78.4466638,276.088671 43.5,310.130171 C34.686674,318.71522 25.0192709,329.130171 22.5,329.130171 C9.99129786,329.130171 1.66948695,324.011449 1,312.630171 C0.666666667,306.963504 3,301.963504 8,297.630171 C11,294.296838 13.3333333,291.296838 15,288.630171 C17.5,284.630171 55.1504241,216.159216 66.5,147.630171 C75.0650841,95.913962 57.8120722,42.9204152 54.8784148,33.3251337 C65.2499475,34.0344694 83.2004148,33.9321613 103.806923,26.6614711 C125.246431,19.0906773 132.880098,7.38039948 140.5,0.130170837 C147.833131,24.2339413 151.851918,53.7001104 150.5,88.1301708 Z" id="path-5"></path>
    </defs>
    <g id="slide-1-copy" stroke="none" stroke-width="1" fill="none" fill-rule="evenodd">
        <g id="BG">
            <mask id="mask-2" fill="white">
                <use xlink:href="#path-1"></use>
            </mask>
            <g id="Mask"></g>
            <g id="BG-Verlauf" mask="url(#mask-2)" transform="translate(1440.417058, 428.500000) scale(1, -1) translate(-1440.417058, -428.500000) ">
                <use fill="#F2F4F3" xlink:href="#path-4"></use>
                <use fill="url(#linearGradient-3)" xlink:href="#path-4"></use>
            </g>
            <g id="illu-korrekturen" mask="url(#mask-2)">
                <g transform="translate(1300.733341, 708.926692)">
                    <path d="M354.844623,165.560945 L333.103388,167.867224 C332.615126,148.575879 328.763279,101.242894 295.629257,77.6374502 C262.495235,54.0320064 218.212557,67.1167481 153.165169,87.3645211 C128.006098,95.1923033 96.0520437,106.913627 60.0698251,124.943302 C42.9128306,133.537583 24.8335628,143.569897 6.13040437,155.298004 C3.98747541,147.042882 1.9259235,138.611397 9.37916411e-13,130.057815 C14.3223607,111.675415 29.4584918,95.3347499 45.062541,81.0154706 C138.883497,-5.17153215 249.786852,-19.5654264 305.814951,23.5077255 C356.105967,62.1582482 355.73977,142.158997 354.844623,165.560945" id="Fill-2" fill="#FAD7D7"></path>
                    <path d="M354.844623,165.560945 L333.103388,167.874008 C332.818568,156.939532 331.469066,136.990219 324.307885,117.475028 C327.929164,118.112647 332.662596,118.370407 337.958885,117.203701 C343.790907,115.914898 348.307333,113.344076 351.562415,110.881784 C355.529546,134.446528 355.231164,155.372619 354.844623,165.560945" id="Fill-4" fill="#D4F3E2"></path>
                    <path d="M355.016871,159.148133 C360.679357,160.416587 365.094062,161.83427 368.132139,162.919578 C370.939647,163.923487 372.940166,164.771384 376.120652,165.219073 C377.042926,165.341171 380.609953,165.78886 384.970407,165.042711 C393.331898,163.597895 394.586461,159.43981 401.971428,157.235278 C402.588538,157.045349 414.062702,153.741944 417.92133,158.449466 C421.908805,163.299435 416.626079,175.210688 409.600527,181.695402 C404.324581,186.579287 395.257822,190.974783 387.391374,190.031922 C385.933368,189.848777 382.929199,189.299339 378.724718,189.679197 C377.39556,189.808077 373.774281,190.154019 370.397133,191.592052 C365.019467,193.877982 364.6058,197.086423 360.163969,200.790035 C353.335079,206.474335 342.613652,208.672083 334.48951,205.300846 C331.749816,204.161273 329.789986,202.587576 328.596456,201.481919 C327.511428,197.703691 326.487434,192.534913 326.514032,186.389358 C326.548467,177.340605 328.847368,170.157224 330.67157,165.741378 C331.987166,166.453611 336.896915,168.956602 343.162948,167.64745 C350.71745,166.06697 354.406543,160.158826 355.016871,159.148133" id="Fill-6" fill="#000000"></path>
                    <path d="M324.308563,117.475707 C327.278826,116.315784 333.992432,113.20909 339.017465,106.032493 C346.992416,94.6164119 344.347662,82.0064923 343.859399,79.8290936 C345.527629,84.7536776 347.141607,90.16665 348.565705,96.0340951 C349.840613,101.257139 350.817137,106.235988 351.563093,110.882462 C349.182815,112.700352 344.76811,115.583201 338.508858,117.068716 C332.378454,118.527099 327.238137,117.998011 324.308563,117.475707" id="Fill-42" fill="#F2C2C2"></path>
                </g>
            </g>
            <path d="M1445.5348,2046 L1436.52803,2046 C-249.914603,2046 -1834.73085,1388.88284 -3025.95124,195.771596 L-2186.22005,-645.473705 C-1219.34329,323.135037 67.1987587,856.49764 1436.52803,856.49764 L1445.5348,856.49764 C2812.08698,856.49764 4098.8542,322.834297 5068.88333,-646 L5907.33857,196.297891 C4713.19097,1389.10839 3128.5999,2046 1445.5348,2046" id="tugut-bildmarke" fill="#50DE93" mask="url(#mask-2)"></path>
        </g>
        <g id="illus" transform="translate(224.000000, 327.000000)">
            <g id="illu-wassersport">
                <g id="Group-5" transform="translate(0.306095, 0.464271)">
                    <path d="M485.261422,260.789472 C486.044338,262.483963 484.737209,264.39622 482.871828,264.273727 C480.243954,264.103597 477.234835,263.906247 476.642542,263.872221 C476.451919,263.858611 475.44434,263.797364 474.239331,263.715702 C471.291483,263.525157 468.66361,261.857886 467.240746,259.271916 C446.190525,221.074413 382.610963,118.772069 277.20328,104.168142 C266.562434,102.698222 255.063785,102.051729 242.727757,102.64378 L259.604696,45.3713442 C284.569495,50.1553892 310.208282,58.3420266 335.431783,71.2446572 C335.431783,71.2446572 350.994785,79.2067236 365.366394,89.0198002 C420.98064,126.985927 460.991036,204.946125 467.737727,218.345534 C468.615954,219.577273 470.392832,222.455866 470.576647,226.47773 C470.678767,228.832324 470.202209,230.758191 469.773308,232.010345 C471.638689,235.004627 473.490455,238.121401 475.328605,241.360669 C479.093408,248.029751 482.381654,254.535507 485.261422,260.789472" id="Fill-2" fill="#F2C2C2"></path>
                    <path d="M466.233848,235.270029 C467.792871,235.760002 470.243738,236.671897 472.932883,238.325557 C479.461719,242.347421 480.877775,246.757181 486.269682,247.63505 C487.447459,247.825595 489.871094,248.18627 491.729668,246.682324 C491.750092,246.661908 491.770515,246.641493 491.797747,246.627883 C494.030759,244.756457 493.581433,241.170124 491.062487,239.693399 C489.510272,238.774699 487.917209,237.767532 486.296914,236.658287 C478.808155,231.499956 473.252857,225.776796 469.249775,220.815816 C468.929801,220.822621 464.552281,220.924699 462.605204,224.102721 C460.651319,227.314768 461.869944,232.466293 466.233848,235.270029" id="Fill-4" fill="#F2C2C2"></path>
                    <path d="M346.615904,88.4365958 C352.225665,83.7614338 360.565419,84.5100042 365.235681,90.1174765 C369.91956,95.7249489 369.163876,104.054495 363.554115,108.729657 C357.951162,113.404819 349.611407,112.656249 344.934337,107.048777 C340.250459,101.448109 341.012951,93.1117579 346.615904,88.4365958" id="Fill-6" fill="#FAD7D7"></path>
                    <path d="M355.08569,85.369499 C362.33617,85.369499 368.306753,91.330841 368.306753,98.5851681 C368.306753,105.83269 362.33617,111.800837 355.08569,111.800837 L355.08569,98.5783629 L355.08569,85.369499 Z" id="Fill-8" fill="#0D2418"></path>
                    <path d="M521.967233,217.442486 C517.405898,209.854705 444.710474,92.8191349 327.804142,96.5347659 C292.25977,97.6644266 263.108074,109.627942 242.656955,121.142314 C225.99787,107.967477 209.338786,94.7926385 192.68651,81.6178006 C178.51914,70.4028559 164.35177,59.1947163 150.177592,47.9865768 C164.201994,43.1276748 322.071837,-8.62575642 453.54721,90.5530083 C531.362221,149.247728 558.417065,229.494469 567.403575,264.044392 C568.383922,267.841685 565.340762,271.482459 561.426184,271.203447 L551.479751,270.502513 C548.981229,270.325578 546.850336,268.665113 546.074229,266.290103 C543.616554,258.797595 541.043144,251.237034 538.340383,243.615227 C536.706472,238.987701 534.412189,234.618773 531.532421,230.644545 C528.346294,226.24159 525.15336,221.838635 521.967233,217.442486" id="Fill-10" fill="#FAD7D7"></path>
                    <path d="M533.854617,226.321211 C532.983197,227.709469 531.710108,229.989205 530.73657,232.983487 C528.367399,240.28545 530.151085,244.559106 526.617752,248.723879 C525.841645,249.635774 524.234966,251.466369 521.838563,251.534524 L521.756867,251.534524 C518.836251,251.554836 516.861942,248.533334 517.821865,245.777234 C518.40735,244.069133 518.965603,242.272564 519.4762,240.380723 C521.838563,231.602034 522.355968,223.646773 522.185769,217.270315 C522.424047,217.072965 525.828029,214.303254 529.381785,215.466941 C532.949158,216.644238 535.359176,221.360231 533.854617,226.321211" id="Fill-12" fill="#FAD7D7"></path>
                    <path d="M268.623204,164.486579 C255.878699,164.486579 243.658406,157.300303 237.844406,145.02375 C229.729314,127.92232 210.619364,96.6729111 173.733823,79.5034296 C159.396254,72.8275432 143.853675,68.955393 127.548605,67.9890568 C108.779052,66.8866168 94.4687149,50.7787441 95.5784128,32.0168494 C96.6881107,13.2549546 112.822982,-1.04273889 131.565303,0.0597010666 C156.462022,1.52962101 180.317122,7.50457335 202.463425,17.8076233 C258.738043,43.9939748 287.324677,90.4938032 299.361155,115.877143 C307.408167,132.862884 300.164495,153.149141 283.178628,161.199674 C278.467518,163.431775 273.511321,164.486579 268.623204,164.486579" id="Fill-16" fill="#0D8F46"></path>
                    <path d="M283.176586,161.200355 C278.472284,163.432456 273.509279,164.480454 268.621162,164.480454 C265.857129,164.480454 263.140752,164.140195 260.478839,163.486897 C261.881279,153.701041 262.616539,143.602147 262.616539,133.271876 C262.616539,99.2187308 254.692071,67.6698936 241.239537,41.8646324 C272.597012,66.948544 290.488338,97.1499546 299.365921,115.877823 C307.41974,132.863565 300.155644,153.156626 283.176586,161.200355" id="Fill-18" fill="#037F3A"></path>
                    <path d="M300.693905,541.035729 C290.079476,544.485418 284.598911,550.035729 258.193905,550.035729 C242.693905,550.035729 219.693905,548.035729 204.693905,554.035729 C169.184557,568.239468 29.6939046,578.035729 4.19390463,546.035729 C-21.3060954,514.035729 76.1939046,502.535729 115.693905,499.035729 C142.027238,496.702395 166.027238,493.202395 187.693905,488.535729 L218.193905,506.535729 C260.43478,507.744113 282.601447,508.91078 284.693905,510.035729 C320.693905,512.535729 320.693905,534.535729 300.693905,541.035729 Z" id="Fill-20" fill="#47D188"></path>
                    <path d="M223.154396,488.073621 C221.865445,492.717707 218.754612,495.194552 216.263467,496.866423 C214.838185,497.820008 213.425297,498.575446 212.049589,499.182273 C211.355539,499.479495 210.673882,499.739563 210.004619,499.962479 C209.335357,500.185396 208.678487,500.371159 208.034012,500.544538 C207.389537,500.693149 206.769849,500.829375 206.162555,500.940833 C204.328279,501.250439 202.679909,501.349513 201.291808,501.349513 C199.891313,501.349513 198.751088,501.262823 197.982675,501.200902 C191.884946,500.779838 180.742958,500.51977 167.085037,503.888279 C166.7628,503.962585 166.452956,504.049274 166.130718,504.135964 C163.986598,504.718023 162.115141,505.374387 158.954732,506.427046 C158.942339,506.43943 158.942339,506.43943 158.929945,506.43943 C150.229527,509.337339 150.155165,509.968935 146.028043,510.959673 C142.446247,511.814185 137.414382,512.94115 131.341441,511.616037 C130.932447,511.529348 130.486272,511.41789 129.990521,511.281663 C129.940946,511.269279 129.903765,511.256895 129.85419,511.24451 C128.40412,510.823447 126.619419,510.167083 124.648812,509.114423 C122.343573,507.72739 117.733095,504.978091 116.183875,498.99651 C114.832956,493.770366 116.543294,488.97767 117.18777,487.392489 C120.001153,480.519243 126.941657,477.732792 134.53903,474.550045 C142.694123,471.156767 149.436327,470.042186 150.923578,469.806886 C168.931707,466.958514 187.051381,465.757244 198.366881,465.224722 C203.782953,468.803764 209.199025,472.370421 214.602703,475.937079 C210.859789,479.392278 207.10448,482.847477 203.349172,486.302677 C209.372538,482.674098 215.38351,479.057904 221.406876,475.44171 C221.964595,476.481985 224.839947,481.968197 223.154396,488.073621" id="Fill-22" fill="#FAD7D7"></path>
                    <path d="M219.305643,498.751136 C218.570383,499.009733 217.848739,499.213889 217.140711,499.390824 C217.848739,499.200279 218.570383,498.996123 219.305643,498.751136" id="Fill-26" fill="#F1C1C2"></path>
                    <path d="M219.305643,498.751136 C218.570383,499.009733 217.848739,499.213889 217.140711,499.390824 C217.848739,499.200279 218.570383,498.996123 219.305643,498.751136" id="Fill-28" fill="#F1C1C2"></path>
                </g>
                <g id="Group-33" transform="translate(115.147541, 267.688525)">
                    <path d="M42.352459,111.311475 C39.8186984,142.16915 31.1520318,186.502483 16.352459,244.311475 L48.852459,203.811475 C65.8350694,169.37843 76.8350694,134.211763 81.852459,98.3114754 C86.8698487,62.4111875 85.5365153,29.7445208 77.852459,0.31147541 L51.0422923,8.31675275 C50.852459,8.31147541 46.124999,65.3651492 42.352459,111.311475 Z" id="Fill-31" fill="#FAD7D7"></path>
                    <path d="M57.852459,116.811475 C56.1857923,157.811475 42.352459,200.311475 16.352459,244.311475 C10.352459,243.311475 5.85245902,240.478142 2.85245902,235.811475 C-1.64754098,228.811475 1.93025091,220.280827 3.85245902,216.811475 C24.352459,179.811475 31.7045538,124.617963 21.9932201,67.7315269 C18.2669953,45.9322512 11.8867416,24.6255674 2.85245902,3.81147541 C16.8713616,8.31478786 27.8713616,10.3147879 35.852459,9.81147541 C43.8335564,9.30816296 49.1668898,7.30816296 51.852459,3.81147541 C57.5191257,38.1448087 59.5191257,75.8114754 57.852459,116.811475 Z" id="Fill-24" fill="#F2C2C2"></path>
                </g>
                <g id="Group-49" transform="translate(41.836066, 48.754098)">
                    <path d="M110.191444,471.953761 C104.98178,477.887626 101.663436,481.659382 101.4586,487.136271 C101.185485,494.284192 106.422461,499.515542 107.139387,500.218057 C112.840657,505.749511 121.027272,506.145102 131.12569,505.797255 C161.052239,504.767354 167.067592,495.334554 190.890026,494.727527 C204.866674,494.366038 204.893985,497.31933 221.31501,497.101073 C239.381551,496.869175 248.19368,494.862886 257.663934,491.745902 C267.134189,488.628917 267.061731,479.299477 264.986059,469.839395 C263.231297,461.845728 262.18668,454.427437 254.163934,455.245902 C246.141189,456.064366 240.924649,455.673144 232.895075,456.484787 C234.86833,456.252889 248.817666,454.384063 254.040985,443.812233 C254.580387,442.714127 256.922346,438.260318 255.46801,433.158558 C253.132879,424.980736 243.266608,422.661755 242.78183,422.559447 C239.675149,429.059416 234.171887,437.90565 224.435346,443.553053 C209.229682,452.358364 199.595559,444.180542 164.070157,448.027324 C160.79278,448.375171 136.54019,451.192052 121.075067,462.0026 C115.667395,465.781176 111.604813,470.344114 110.191444,471.953761 Z" id="Fill-37" fill="#FAD7D7"></path>
                    <g id="Path-3" transform="translate(100.163934, 176.615731)">
                        <mask id="mask-6" fill="white">
                            <use xlink:href="#path-5"></use>
                        </mask>
                        <use id="Mask" fill="#FAD7D7" xlink:href="#path-5"></use>
                        <path d="M105,46.1301708 C107.333333,112.796838 99,167.963504 80,211.630171 C51.5,277.130171 7.5,327.130171 1.5,320.630171 C-2.5,316.296838 -5,309.963504 -6,301.630171 L50.5,46.1301708 L105,46.1301708 Z" fill="#F2C2C2" mask="url(#mask-6)"></path>
                    </g>
                    <path d="M262.693261,462.925418 C260.405925,464.2145 256.555007,466.0083 251.454589,466.710815 C246.005949,467.467895 241.547351,466.635789 238.945933,465.946915" id="Fill-41" fill="#F1C1C2"></path>
                    <path d="M265.540482,473.079149 C263.362392,474.306845 259.607064,476.059723 254.62272,476.707673 C249.535957,477.369265 245.384613,476.598545 242.940236,475.950594" id="Fill-43" fill="#F1C1C2"></path>
                    <path d="M240.663934,426.745902 C243.108311,428.376009 245.784726,430.037481 248.229103,431.667589 C247.648734,432.861182 246.747456,434.375341 245.361398,435.882679 C242.951161,438.522226 240.267808,439.818128 238.663259,440.438797 C240.414025,437.019076 241.41425,434.454777 241.663934,432.745902 C241.858844,431.411912 241.525511,429.411912 240.663934,426.745902 Z" id="Fill-45" fill="#F1C1C2"></path>
                    <path d="M159.04826,214.848239 C151.667334,219.793127 134.392825,229.907981 110.044645,231.313011 C83.9280467,232.813528 64.5164156,223.428472 56.7804402,219.145176 C47.6106123,188.282256 27.7551697,157.944516 13.5190631,135.17075 C2.3418418,117.280487 -2.01433852,95.8162636 2.06189918,75.1227606 C2.21894016,74.3042964 2.39646475,73.4721911 2.58081721,72.6400858 C4.23998934,65.2398054 9.28578443,44.1029676 27.632268,26.806091 C28.0282844,26.4309616 31.1349648,23.5390548 34.9858828,20.6676096 C53.5167189,6.84920578 80.5892189,-4.10457334 104.684768,1.62467601 C118.818457,70.7780798 138.769489,148.702692 159.04826,214.848239" id="Fill-47" fill="#D4F3E2"></path>
                </g>
                <g id="Group-59" transform="translate(88.426230, 48.754098)">
                    <path d="M226.106583,189.68988 C225.929008,189.894251 225.717283,190.125872 225.519218,190.357494 C225.40994,190.466492 225.505558,190.364306 225.273344,190.616364 C221.954046,194.390426 214.789553,201.604743 207.351866,207.429333 C207.338206,207.442958 207.338206,207.442958 207.324547,207.442958 C201.409913,212.123067 194.204441,217.048423 186.275006,221.272102 C185.742279,221.571847 185.195893,221.857967 184.635847,222.130463 C184.08946,222.416583 183.529414,222.689078 182.969368,222.975199 C182.409322,223.247694 181.835616,223.520189 181.26191,223.80631 C178.01091,225.305035 174.199864,227.096692 168.551594,229.038222 C167.923249,229.269843 167.288075,229.48784 166.632411,229.692211 C165.983577,229.910208 165.334743,230.114579 164.679079,230.318951 C158.381975,232.28773 149.796876,234.270135 141.389354,235.019497 C136.492365,235.489552 129.963046,235.700736 124.082561,235.360117 C120.770093,235.182995 115.340377,234.665253 110.696091,233.834142 C109.93798,233.711519 109.220848,233.575271 108.490056,233.439024 L108.449077,233.439024 C104.358008,232.553413 104.67901,232.791847 97.4735378,230.782193 C96.7632353,230.577821 97.5076869,230.809443 94.5708594,229.910208 C94.5571997,229.910208 94.5435401,229.896583 94.5298804,229.896583 C94.2703468,229.814834 94.0244729,229.733086 93.7717691,229.651337 C93.6283426,229.181282 93.655662,229.276656 93.0819561,227.444124 C67.6681533,151.935636 32.7745444,145.777239 11.0147015,112.389734 C-10.5470764,74.7581129 -0.486734703,18.8624845 49.3573752,0.128422587 C61.8764562,0.496291439 75.5634385,4.60416029 86.6550847,11.9274754 C103.210596,22.5956721 119.800257,35.137275 135.174207,49.2729763 C163.927798,75.5279126 189.245983,108.12518 207.20844,144.033268 C207.652379,144.878004 208.068998,145.709115 208.471958,146.553851 C215.28813,160.423869 220.588079,173.224342 225.81973,188.817894 C225.81973,188.831519 225.83339,188.858769 225.83339,188.872393 C225.929008,189.144889 226.004136,189.417384 226.106583,189.68988" id="Fill-53" fill="#E5FFF1"></path>
                    <polygon id="Fill-55" fill="#F2C2C2" points="454.826028 188.715027 465.193712 219.541075 467.590983 219.711384"></polygon>
                    <path d="M462.215905,189.131264 C461.908563,189.247075 465.350798,199.554215 472.54944,220.059497 C472.631398,220.06631 472.754335,220.073122 472.904592,220.079934 C473.416829,220.120809 473.485127,220.120809 473.560255,220.120809 C473.833449,220.127621 474.038344,220.113996 474.113472,220.113996 C474.318367,220.093559 474.502772,220.073122 474.639369,220.052685 C466.668955,199.322594 462.530078,189.015454 462.215905,189.131264" id="Fill-57" fill="#F2C2C2"></path>
                </g>
            </g>
            <g id="schatten-hochsprung" transform="translate(1008.829004, 528.000000)" fill="#47D188">
                <path d="M64.6709956,0 C89.7334828,1 127.400149,1.5 177.670996,1.5 C227.941842,1.5 278.775175,1 330.170996,0 C268.404793,9.67913366 219.904793,19.512467 184.670996,29.5 C149.437199,39.487533 115.603865,54.8208663 83.1709956,75.5 L64.6709956,0 Z" id="Path-2"></path>
                <path d="M4.73132528,95.7722875 C10.319216,91.1122473 18.6264564,91.8583964 23.2785111,97.4477314 C27.9441286,103.030283 27.1981723,111.339671 21.6035001,115.999711 C16.0223909,120.659751 7.71515042,119.913602 3.05631435,114.324267 C-1.60252172,108.734932 -0.84978401,100.432328 4.73132528,95.7722875" id="Fill-30"></path>
            </g>
            <g id="illu-hochsprung" transform="translate(1234.507596, 573.586824) rotate(-10.000000) translate(-1234.507596, -573.586824) translate(1007.007596, 215.086824)">
                <path d="M143.017984,572.019436 C107.252771,514.342112 57.2872628,418.814679 32.324853,293.597296 C10.197077,182.65171 16.4631098,91.4383755 24.8246016,34.1069929 C30.7040934,34.2697891 28.8188585,34.2155237 34.6983503,34.3715367 C40.3472738,95.6168104 52.9268093,172.890723 80.3305306,260.495409 C116.170339,375.06321 173.954826,488.566053 208.173875,543.692904 C212.995465,544.289823 220.421121,545.917785 227.650115,551.181527 C239.090372,559.497698 240.806072,570.174413 249.53376,581.156371 C254.660514,587.600386 263.456017,595.719845 279.263509,601.146384 C281.677695,601.973931 282.99329,604.578669 282.145613,606.993479 L282.125268,607.047745 C279.616143,614.170077 270.793514,616.523838 268.637022,617.100408 C255.752323,620.519127 244.244252,612.440367 242.257296,611.043034 C237.110197,607.427602 233.814427,603.018539 230.532219,598.643393 C227.2907,594.315728 225.039268,590.354354 223.533793,587.41724 C221.621432,595.441735 220.041361,607.624314 223.750798,621.170312 C227.507705,634.906238 234.980831,643.778629 245.702257,656.503863 C248.313104,659.603773 251.473246,663.151373 255.203028,666.963516 C264.656328,676.629539 263.37464,692.461466 252.354831,700.296031 C247.268766,703.911462 241.280771,707.431929 234.329815,710.38261 C230.491531,712.017355 226.754968,713.306158 223.154033,714.330417 C205.454525,719.383881 186.330919,714.696708 173.046115,701.951125 C172.97152,701.883294 172.890143,701.808679 172.822328,701.734064 C168.014301,697.101156 150.789492,680.570562 142.136399,659.067902 C126.227186,619.583049 139.159356,582.139931 143.017984,572.019436" id="Fill-12" fill="#FAD7D7"></path>
                <path d="M34.8997585,36.5129845 C36.9748732,35.1292171 41.1725727,31.9275592 44.1224907,26.2025608 C46.8554033,20.9184686 47.1944743,16.0617164 47.2012557,13.5926412 C46.1704798,11.9918122 44.3462776,11.1099997 42.5559825,11.3541939 C40.3994907,11.6526536 38.6498842,13.5315926 38.4600044,15.8853539 C38.453223,13.7486542 38.7244798,10.2892357 40.4401792,6.51100804 C41.5252066,4.13011414 39.9586984,1.37614569 37.3546328,1.09803557 L34.1063322,0.758876895 C28.6472885,0.175523972 23.5883486,3.57389391 21.9947148,8.82407021 C21.7641464,9.57700247 21.5539224,10.3706338 21.370824,11.1981809 C18.9634197,22.1869221 23.303529,31.1678438 24.8429115,34.030343" id="Fill-14" fill="#FAD7D7"></path>
                <path d="M206.639917,699.985362 C212.580442,705.479732 218.520967,710.126206 224.203797,714.019748 C221.613295,714.799813 219.104169,715.430648 216.669639,715.939386 C207.060366,708.661041 193.544994,696.464895 182.233584,677.96718 C173.926344,664.339785 169.369229,651.519587 166.765163,641.826432 C173.28889,657.773673 185.081781,680.042831 206.639917,699.985362" id="Fill-16" fill="#F2C2C2"></path>
                <path d="M251.017535,701.230752 C249.308617,702.411024 247.484415,703.57773 245.578836,704.703737 C235.759338,697.696719 221.511573,685.643019 209.460989,666.81293 C200.862147,653.382246 196.047338,640.657013 193.233049,631.004557 C200.089065,646.822917 212.363437,668.834315 234.321677,688.31559 C239.963819,693.348705 245.605961,697.608538 251.017535,701.230752" id="Fill-18" fill="#F2C2C2"></path>
                <path d="M420.685292,130.748901 C419.593483,134.045523 418.501674,137.328579 417.409866,140.611635 C404.192877,139.316049 387.483456,138.508852 368.312379,139.668774 C369.594068,136.914806 370.699439,133.041614 370.143363,128.449405 C369.675445,124.555864 368.169969,121.489869 366.718745,119.326037 C367.817336,119.475267 368.895581,119.61093 369.960264,119.76016 C371.099543,119.90939 372.218478,120.072186 373.330631,120.241765 C373.629013,120.282464 373.907051,120.323163 374.205434,120.370646 C375.019204,120.492743 375.812631,120.608057 376.606057,120.736937 C376.965472,120.791202 377.311325,120.852251 377.67074,120.906516 C378.86427,121.089662 380.044237,121.286374 381.197079,121.489869 C381.956598,121.618749 382.709336,121.74763 383.44851,121.883293 C384.214811,122.018957 384.967549,122.15462 385.706723,122.30385 C386.40521,122.425947 387.083352,122.554827 387.754713,122.683708 C388.392166,122.799022 389.02962,122.927902 389.673855,123.049999 C392.976407,123.707967 396.129767,124.379501 399.079685,125.057818 C399.710357,125.200265 400.320685,125.335929 400.91745,125.471592 C401.771909,125.668304 402.606024,125.878582 403.433357,126.082078 C404.715046,126.38732 405.942483,126.68578 407.149576,126.98424 C407.902314,127.187735 408.627926,127.384447 409.353538,127.567593 C410.601319,127.893185 411.808412,128.211994 412.954472,128.537586 C413.537674,128.693599 414.107314,128.849612 414.649827,129.005625 C416.867352,129.616111 418.881434,130.21303 420.685292,130.748901" id="Fill-20" fill="#E5FFF1"></path>
                <path d="M368.315092,139.678271 C349.78825,140.777145 328.97607,143.748175 306.834731,149.920863 C286.280245,155.632295 252.047633,167.597813 182.463474,217.92896 C156.816141,236.474157 125.377474,260.947847 90.7990098,292.20471 C75.2899005,306.232313 59.1297749,321.630117 42.6034525,338.465954 L33.102682,297.495586 L33.102682,297.482019 C39.0838951,285.801395 51.8939989,262.684339 73.1808787,236.745484 C102.937753,200.496204 149.254857,158.752555 216.696086,134.916483 C274.582294,114.458431 327.762196,114.363467 366.728239,119.32875 C368.172682,121.485799 369.678157,124.558577 370.146075,128.445335 C370.702152,133.037544 369.583217,136.910736 368.315092,139.678271" id="Fill-22" fill="#FAD7D7"></path>
                <path d="M253.268967,253.548083 C234.592934,257.597637 213.604437,264.034869 189.862683,271.421745 C175.011371,276.047869 157.800125,282.017062 138.77824,289.858411 C135.584191,278.767922 127.833027,259.876784 109.258715,245.381142 C98.0354639,236.651198 86.6698027,232.459196 78.5388792,230.369979 C105.752721,198.78074 145.369781,164.118723 200.278945,141.232296 C205.88718,144.861294 212.485502,149.914758 218.893945,156.901427 C218.893945,156.901427 221.443759,159.682528 223.864726,162.816354 C244.398868,189.263947 250.814092,223.518974 250.814092,223.518974 C252.143251,230.641306 253.519879,240.93138 253.268967,253.548083" id="Fill-24" fill="#E5FFF1"></path>
                <path d="M138.786378,289.855019 C125.596514,295.281558 111.525066,301.617042 96.775476,309.010701 C79.6117,317.598199 61.5324322,327.623729 42.8360552,339.345053 C39.302935,325.792273 36.0410716,311.832501 33.1047164,297.479306 C39.0859295,285.785115 51.9028148,262.66806 73.1829131,236.74277 C74.9189568,234.639987 76.7024705,232.51007 78.5402355,230.366587 C86.6643776,232.455805 98.0436016,236.647806 109.260072,245.384534 C127.834383,259.873392 135.585547,278.757747 138.786378,289.855019" id="Fill-26" fill="#0D8F46"></path>
                <path d="M64.0978437,305.567562 L38.9523355,323.821082 C37.7723683,318.930414 36.6330896,313.965131 35.5480623,308.959149 C40.539188,302.97639 45.5438765,296.973281 50.5350022,290.997306 C54.8208601,285.85566 62.8636251,286.344049 66.4849038,291.987649 L66.6205322,292.170795 C69.4551661,296.600207 68.3430131,302.474435 64.0978437,305.567562" id="Fill-28" fill="#FAD7D7"></path>
                <path d="M5.11168962,338.470024 C10.6995803,333.809984 19.0068208,334.556133 23.6588754,340.145468 C28.3244929,345.728019 27.5785366,354.037407 21.9838645,358.697447 C16.4027552,363.357487 8.09551475,362.611338 3.43667869,357.022003 C-1.22215738,351.432668 -0.469419672,343.130064 5.11168962,338.470024" id="Fill-30" fill="#FAD7D7"></path>
                <path d="M42.8333426,339.357941 C50.9167962,335.491532 64.8526158,330.193874 82.6470639,330.187091 C91.8426705,330.180307 99.7294628,331.591208 105.859867,333.219169 C103.825441,327.955427 101.804578,322.637418 99.8040585,317.251579 C98.7800639,314.490827 97.7696322,311.743642 96.7727634,308.996457 C89.5437689,312.625454 82.1588016,316.498646 74.6314246,320.643165 C63.387829,326.836203 52.7884683,333.110638 42.8333426,339.357941" id="Fill-34" fill="#F2C2C2"></path>
                <path d="M163.316133,209.264813 C173.264477,204.157083 185.525286,198.78481 199.935805,194.301132 C214.08863,189.905636 227.014018,187.375512 237.95245,185.930696 C235.836646,181.447018 233.219018,176.583483 229.970717,171.516452 C227.936291,168.34871 225.888302,165.445512 223.867439,162.813641 C216.041679,166.578302 207.334335,171.441837 198.281138,177.736622 C183.043286,188.325156 171.589466,199.666622 163.316133,209.264813" id="Fill-36" fill="#D4F3E2"></path>
                <path d="M223.865404,162.816354 C234.017191,157.796805 246.644197,152.668726 261.570104,148.897282 C289.509557,141.835998 313.861639,142.4804 330.510027,144.372905 C327.200694,145.00374 322.752082,145.905902 317.530388,147.154006 C312.159503,148.442809 303.899732,150.437062 293.503814,154.072843 C285.155885,156.982825 279.005137,159.696094 275.187197,161.391887 C267.483503,164.81739 261.888831,167.747721 257.053678,170.284628 C251.438661,173.228525 244.284262,177.169549 236.099087,182.141615 C234.376607,178.790727 232.348962,175.222778 229.968683,171.512382 C227.927475,168.324291 225.872705,165.434659 223.865404,162.816354" id="Fill-38" fill="#F2C2C2"></path>
                <path d="M22.860024,357.899068 C17.7536142,363.006797 9.34465246,363.006797 4.23824262,357.899068 C-0.868167213,352.784555 -0.868167213,344.380203 4.23824262,339.272473 C7.34413333,342.372384 10.450024,345.479077 13.5559148,348.58577 C16.655024,351.692464 19.7609148,354.792374 22.860024,357.899068" id="Fill-40" fill="#0D2418"></path>
                <path d="M38.4620388,15.8853539 C38.5366344,17.2826876 38.868924,19.8874262 40.4557765,22.6210452 C41.5814923,24.567816 42.9309951,25.8769685 43.9007383,26.6638166 C43.4463831,21.5628701 42.9988093,16.4619236 42.5580169,11.3541939 C42.0561918,11.435592 41.1949514,11.6458704 40.3608366,12.2970551 C38.7129514,13.5655085 38.5027273,15.5054961 38.4620388,15.8853539" id="Fill-44" fill="#F2C2C2"></path>
                <path d="M420.685292,130.755006 C444.535549,117.500685 442.813068,104.863633 449.289325,104.287063 C451.832357,104.056435 454.070226,106.016772 454.504237,108.533329 C456.755669,121.516324 446.983642,130.653258 444.718647,142.266051 C440.541292,164.345281 429.609642,150.432992 417.403084,140.610957 C418.257543,138.067267 419.763019,133.522541 420.685292,130.755006" id="Fill-46" fill="#0D2418"></path>
                <path d="M278.938001,601.304431 C281.440345,601.935267 282.986509,604.553572 282.152394,606.995514 L282.13205,607.056563 C279.609361,614.172112 270.793514,616.51909 268.630241,617.088876 C255.752323,620.521162 244.251033,612.442402 242.257296,611.045069 C237.116979,607.416071 233.807645,603.020574 230.532219,598.638644 C227.297481,594.317763 225.04605,590.369956 223.554137,587.419275 L223.581263,587.405709 L278.938001,601.304431 Z" id="Fill-48" fill="#F2C2C2"></path>
            </g>
            <g id="schatten-radsport" transform="translate(1999.000000, 529.000000)" fill="#47D188">
                <path d="M457.392781,127.176556 C470.092798,116.72044 420.842279,99.0077147 347.385299,87.6153444 C273.923083,76.222974 204.083461,75.4668657 191.383444,85.9229811 C178.683428,96.3816338 227.933946,114.094359 301.390926,125.484192 C374.842672,136.876563 444.692764,137.635208 457.392781,127.176556" id="Fill-57" transform="translate(324.388113, 106.550269) rotate(6.000000) translate(-324.388113, -106.550269) "></path>
                <path d="M118.222415,32.220164 C122.891721,28.8243299 100.765011,21.4560964 68.7997639,15.7676203 C36.8311841,10.0768743 7.13559973,8.22233118 2.46629404,11.6204352 C-2.20301166,15.0185392 19.9236982,22.3845029 51.8889451,28.072979 C83.8508592,33.763725 113.553109,35.6182681 118.222415,32.220164" id="Fill-60" transform="translate(60.344354, 21.920300) rotate(9.000000) translate(-60.344354, -21.920300) "></path>
            </g>
            <g id="illu-radsport" transform="translate(2111.000000, 329.000000) scale(-1, 1) rotate(-2.000000) translate(-2111.000000, -329.000000) translate(1895.000000, 43.000000)">
                <g id="Group-56" transform="translate(183.836066, 0.000000)">
                    <path d="M188.958469,275.303495 C190.741984,282.142926 188.82913,287.864046 187.964601,290.046118 C194.084373,293.482881 199.448533,296.067272 203.600992,297.928852 C214.342927,302.749867 217.801041,303.111273 221.007284,302.258901 C224.63558,301.304245 227.174706,298.999431 228.719966,297.253774 C228.944607,292.698699 229.162441,288.143624 229.380275,283.588549 C225.404806,275.160296 221.109393,266.527475 216.473615,257.737817 C213.859608,252.773603 211.225179,247.932131 208.583943,243.22022 C200.558125,247.325242 192.532306,251.443903 184.506488,255.555745 C184.989807,256.244461 187.66508,260.226742 186.283196,264.543153 C185.956445,265.579637 185.452704,266.432009 184.942156,267.107088 C186.235545,268.798193 187.978216,271.553059 188.958469,275.303495" id="Fill-2" fill="#FAD7D7"></path>
                    <path d="M228.722008,297.25241 C228.38845,298.841231 227.598802,301.296062 225.515765,303.068995 C222.935794,305.257886 219.770395,305.251067 214.283704,305.155602 C211.581202,305.107869 207.850796,304.855567 203.439659,303.935005 C211.867109,301.705201 220.294558,299.475396 228.722008,297.25241" id="Fill-4" fill="#FAD7D7"></path>
                    <path d="M199.943425,272.88685 C203.210933,274.496128 206.764349,276.098587 210.58325,277.605581 C217.308872,280.264981 223.646478,282.187932 229.38504,283.585821 C228.656658,286.422515 227.935083,289.259208 227.213508,292.095902 C214.742516,289.497872 202.271525,286.886205 189.800533,284.274538 C189.827762,282.938019 189.793726,281.458301 189.650772,279.855842 C189.535048,278.512504 189.35125,277.271451 189.140224,276.139501 C189.766496,276.439536 192.006101,277.428287 194.790291,276.732752 C198.0578,275.914475 199.643903,273.391454 199.943425,272.88685" id="Fill-6" fill="#F2C2C2"></path>
                    <path d="M77.6215122,256.724517 C81.1681207,264.907286 82.3117487,271.739899 82.6997654,276.356345 C83.0673601,280.802316 82.7610312,283.448078 81.0319745,284.852787 C79.4935224,286.121116 77.3015687,285.8279 72.9721196,285.193736 C66.6481287,284.273174 61.9442776,283.57082 59.4187657,283.182138 C58.9694832,274.862989 58.5270081,266.54384 58.0777256,258.224691 C60.1199186,257.106379 64.2655703,255.203886 69.7318401,255.258437 C73.0674219,255.292532 75.7835386,256.042619 77.6215122,256.724517" id="Fill-8" fill="#F2C2C2"></path>
                    <path d="M247.10651,292.417757 C246.698071,296.318211 244.152137,299.277646 241.401984,299.100352 L241.36114,299.100352 L241.347525,299.093533 L241.116077,299.059438 L241.075233,299.059438 C238.352309,298.6503 236.514335,295.227175 236.922774,291.326721 C237.331213,287.535371 239.727386,284.630488 242.382236,284.630488 L242.749831,284.657764 L242.77706,284.657764 C245.581672,284.957799 247.528563,288.435476 247.10651,292.417757" id="Fill-10" fill="#000000"></path>
                    <path d="M241.362501,299.103762 C241.321658,299.103762 241.280814,299.090124 241.23997,299.090124 C241.199126,299.090124 241.158282,299.076486 241.117438,299.056029 L241.348887,299.090124 L241.362501,299.103762 Z" id="Fill-12" fill="#0D2418"></path>
                    <line x1="46.0880107" y1="275.969709" x2="46.0743961" y2="275.969709" id="Fill-14" fill="#0D2418"></line>
                    <path d="M83.3784542,276.162686 C83.1606203,278.290206 84.1953314,280.185881 85.7610126,280.676847 L85.7065542,280.676847 L62.6161591,277.949257 L46.0743961,275.985392 L46.0743961,275.971754 C44.9307681,275.835375 44.1683494,274.171545 44.3861833,272.248594 C44.576788,270.434747 45.5570406,269.002762 46.6189809,268.941392 L46.8232002,268.961849 L64.8489567,270.407471 L87.1360892,272.194043 L87.2177769,272.207681 L87.2177769,272.234956 C85.352574,272.030387 83.637132,273.789683 83.3784542,276.162686" id="Fill-16" fill="#000000"></path>
                    <path d="M241.076594,299.056711 L162.452166,289.762449 L162.479395,289.503328 C160.124066,289.244206 158.463082,286.537074 158.789833,283.461716 C159.116584,280.365902 161.308537,278.061088 163.663867,278.31339 L163.677481,278.31339 L242.383598,284.63458 C239.728747,284.63458 237.332574,287.539463 236.924135,291.323994 C236.515697,295.224447 238.353671,298.647572 241.076594,299.056711" id="Fill-18" fill="#0D2418"></path>
                    <path d="M162.476672,289.501282 L162.449443,289.760403 L130.346169,285.948596 L119.862912,284.714362 L97.7527697,282.095875 L86.8066154,280.80027 L86.6976985,280.786632 L85.7855189,280.691167 L85.7582897,280.677529 C84.1926084,280.186563 83.1578973,278.284069 83.3757313,276.163368 C83.634409,273.790364 85.3498511,272.02425 87.215054,272.235638 L87.215054,272.208362 L87.2286686,272.208362 L101.333415,273.340312 L163.661144,278.311345 C161.305815,278.059043 159.113861,280.363856 158.78711,283.45967 C158.460359,286.535028 160.121343,289.242161 162.476672,289.501282" id="Fill-20" fill="#037F3A"></path>
                    <path d="M77.6215122,256.724517 C78.6562233,258.647468 81.1817353,262.677482 86.1102276,265.527813 C89.2688194,267.362117 92.2504211,268.016739 94.1973117,268.282679 C94.2313483,268.780464 94.4355676,272.046753 92.2640357,273.751496 C90.0993112,275.449421 87.0972876,274.406118 85.1503969,273.731039 C83.9931543,273.32872 78.0844093,271.276209 76.5255353,265.289149 C75.4499804,261.163669 77.0973494,257.720087 77.6215122,256.724517" id="Fill-22" fill="#FAD7D7"></path>
                    <path d="M72.8747751,274.47158 C77.8645332,276.803669 76.8638586,283.786299 71.4384327,284.509111 C71.4180107,284.51593 71.4043961,284.51593 71.3839742,284.51593 C70.0565488,284.686404 67.8373658,284.638671 63.4602655,283.977231 C61.2002386,283.629463 59.1172018,283.145316 57.2724209,282.627074 C56.5100021,282.408866 55.8088492,282.081556 55.1825767,281.665598 C50.8667423,278.787991 52.9497791,272.466802 58.1709858,272.364517 L58.2526735,272.364517 C60.6080027,272.34406 63.2696608,272.480439 66.1763822,272.910035 C69.2873228,273.366906 70.8461967,273.619208 72.3642268,274.253373 C72.5207949,274.314744 72.6909777,274.382933 72.8747751,274.47158" id="Fill-24" fill="#FAD7D7"></path>
                    <path d="M213.495417,290.666645 C221.541657,294.117046 220.282305,303.697705 211.677865,304.440973 C211.650636,304.447792 211.630214,304.447792 211.602985,304.447792 C209.499526,304.625085 205.97334,304.447792 198.995847,303.322661 C195.381166,302.743048 192.052391,301.986142 189.091211,301.181503 C187.872703,300.847374 186.742689,300.363226 185.7284,299.756338 C178.7441,295.583125 181.752931,286.957122 190.037427,287.073045 L190.173574,287.073045 C193.910787,287.148054 198.151741,287.461727 202.780711,288.198176 C207.750048,288.975539 210.227908,289.391496 212.67854,290.339334 C212.93041,290.434799 213.202703,290.537084 213.495417,290.666645" id="Fill-26" fill="#FAD7D7"></path>
                    <path d="M200.229332,265.688059 C199.249079,260.076043 191.869955,258.623601 188.398227,263.137762 C186.648748,265.408481 184.361492,267.917864 181.413927,270.331781 C176.070189,274.682286 170.808138,276.871177 167.418098,277.98267 C167.547437,278.344076 169.725776,284.024281 174.844873,284.883472 C177.819668,285.388076 180.358794,283.935635 181.543266,283.253737 C185.770605,280.853458 185.226021,278.11905 189.17426,276.114271 C192.230743,274.573183 193.006776,275.977892 195.750122,274.177682 C198.207561,272.561585 200.501624,269.561236 200.324634,266.499517 C200.304212,266.226758 200.276983,265.953999 200.229332,265.688059" id="Fill-28" fill="#FAD7D7"></path>
                    <path d="M86.2007648,46.7280589 C80.5711196,88.6852093 76.7113749,135.108788 76.1599828,185.36463 C75.8876904,210.206155 76.4390825,234.024833 77.6235544,256.725199 C75.4996737,257.857149 71.2927562,259.718729 65.7788353,259.630082 C62.5589777,259.582349 59.9245488,258.879995 58.0797678,258.225373 C53.5392921,227.79229 49.5365939,195.906765 46.2758925,162.664264 C42.0962042,119.929751 39.5570777,79.111369 38.2704961,40.4546024 C39.1418318,38.2452546 47.691813,17.9383484 60.4555189,17.0723387 C73.7161586,16.179053 87.5690341,29.3805877 86.2007648,46.7280589" id="Fill-30" fill="#037F3A"></path>
                    <path d="M8.54433539,12.7463812 C39.490366,-0.421058598 63.8673426,-0.0664719219 72.4173238,0.390399372 C81.5799629,0.881365539 88.4893824,2.31335019 95.180968,6.35700209 L95.3103069,6.43201081 C101.191823,10.0324294 103.254438,17.642405 100.143497,23.799939 C96.4607423,31.0894227 91.88623,38.8425968 86.2021263,46.7253314 C83.1524515,50.9530956 80.0687401,54.8126352 77.0258726,58.344864 C75.4261548,52.0236746 71.5527955,41.0110307 61.5392427,33.2101238 C56.515448,29.2960324 51.6958726,27.5571939 45.8960446,25.7638036 C35.5148971,22.5520666 20.3822472,18.6788891 0.749965601,16.299067 C2.50625155,15.4466952 5.20194625,14.1715469 8.54433539,12.7463812" id="Fill-32" fill="#0D8F46"></path>
                    <path d="M102.989633,12.3604273 C104.500856,14.0242571 105.14755,15.6744489 105.344962,16.1108633 C110.709123,27.6758441 152.104374,118.750068 208.584624,243.21681 C208.203414,244.566967 206.358633,250.506294 200.279706,254.120351 C192.98227,258.457218 185.535073,255.927379 184.507169,255.552335 C153.193543,218.968537 65.4677412,112.988035 57.4351156,48.6441908 C56.0545929,37.5769951 52.9490984,14.6993355 65.3792462,6.77568713 C77.1014338,-0.69108999 93.2279508,1.57280956 102.989633,12.3604273" id="Fill-34" fill="#0D8F46"></path>
                    <path d="M184.504446,255.553017 C168.697872,237.203157 155.988625,221.314946 146.730683,209.409016 C141.795384,203.060551 113.313599,166.251727 89.1680712,126.476648 C84.1034327,118.15068 77.520764,106.858458 70.8496004,91.6248692 C66.5746098,81.8600977 63.6066227,73.5477677 61.7005759,67.7993722 C67.0034703,64.4580746 72.9258299,60.0939309 78.882226,54.4137251 C78.9094553,54.3864493 78.9366845,54.3659923 78.9639137,54.3387164 C82.6330537,50.8337635 88.6302937,51.8975235 90.7950183,56.4935124 C122.033763,122.842135 153.265701,189.204395 184.504446,255.553017" id="Fill-36" fill="#037F3A"></path>
                    <path d="M144.009121,315.378608 C143.450922,317.983457 140.891373,319.647286 138.290981,319.08813 C135.683781,318.528975 134.029605,315.96504 134.587804,313.353373 C135.146003,310.748525 137.705552,309.091514 140.305944,309.65067 C142.906337,310.209826 144.56732,312.77376 144.009121,315.378608" id="Fill-38" fill="#E5FFF1"></path>
                    <path d="M132.053443,8.791376 C137.662666,4.1067405 145.994813,4.86364667 150.671435,10.4756627 C155.348057,16.0944977 154.599253,24.4477415 148.99003,29.1255581 C143.387614,33.8170126 135.048659,33.0669254 130.372037,27.4412714 C125.688608,21.8292553 126.444219,13.4760115 132.053443,8.791376" id="Fill-40" fill="#FAD7D7"></path>
                    <path d="M127.276753,18.9727869 C127.276753,11.710579 133.239957,5.73033833 140.496549,5.73033833 C147.746334,5.73033833 153.716345,11.710579 153.716345,18.9727869 L140.489742,18.9727869 L127.276753,18.9727869 Z" id="Fill-42" fill="#0D2418"></path>
                    <path d="M202.778669,288.19613 C202.540413,290.910082 202.506377,296.167511 205.515208,301.322656 C206.291241,302.652356 207.148962,303.770668 207.986261,304.698048 C207.571015,304.643497 207.148962,304.588945 206.713294,304.527574 C206.413773,304.479841 206.121058,304.432108 205.828344,304.384376 C204.861706,303.081952 203.588739,301.008983 202.812706,298.226842 C201.573775,293.774051 202.302157,289.996339 202.778669,288.19613" id="Fill-44" fill="#F2C2C2"></path>
                    <path d="M192.375058,287.143962 C192.150416,289.919285 192.198067,294.658472 194.641892,299.534039 C195.295393,300.843282 196.030583,301.968413 196.758965,302.923069 C196.364141,302.861699 195.96251,302.78669 195.560879,302.704862 C195.288586,302.65031 195.016294,302.602578 194.750809,302.541207 C193.893088,301.211507 192.817533,299.199909 192.198067,296.554147 C191.224622,292.401392 191.891739,288.937353 192.375058,287.143962" id="Fill-46" fill="#F2C2C2"></path>
                    <path d="M58.7720712,272.360426 C58.5610446,273.983341 58.350018,277.447381 60.2152209,280.965971 C60.8278788,282.111559 61.535839,283.025302 62.1893408,283.741294 C61.9238557,283.70038 61.644756,283.659466 61.358849,283.604915 C61.1274004,283.564001 60.9095665,283.523087 60.6985399,283.468535 C60.0450382,282.70481 58.7380347,280.938696 58.2547157,278.292933 C57.7441674,275.52443 58.4248984,273.308263 58.7720712,272.360426" id="Fill-48" fill="#F2C2C2"></path>
                    <path d="M66.55623,273.166428 C66.3520107,274.727973 66.1409841,278.089728 67.9585359,281.485577 C68.5439645,282.59707 69.2315028,283.483537 69.8645826,284.165434 C69.6059049,284.131339 69.3336125,284.097245 69.0545128,284.042693 C68.8366788,284.001779 68.6256522,283.954046 68.4146256,283.906313 C67.7951604,283.163045 66.5221935,281.458301 66.0524891,278.901186 C65.5623628,276.21451 66.2158646,274.080171 66.55623,273.166428" id="Fill-50" fill="#F2C2C2"></path>
                </g>
                <g id="Group-120" transform="translate(0.000000, 15.721311)">
                    <path d="M332.275934,419.573051 C326.584131,453.634226 310.31506,479.266773 295.950033,476.853739 C281.571454,474.440704 274.538011,444.879328 280.223038,410.811355 C285.914842,376.763774 302.183913,351.117633 316.562492,353.544262 C330.927519,355.957297 337.967738,385.52547 332.275934,419.573051 M315.261508,345.795362 C296.830907,342.682207 276.760525,371.040464 270.431781,409.132427 C264.08271,447.22439 273.887519,480.633027 292.324896,483.746182 C310.762273,486.866134 330.82588,458.514674 337.161399,420.422711 C343.51047,382.330748 333.698885,348.915314 315.261508,345.795362" id="Fill-64" fill="#000000"></path>
                    <polygon id="Fill-66" fill="#037F3A" points="305.086055 415.370972 301.54223 264.083886 311.916219 265.191843 310.743978 415.35058"></polygon>
                    <polygon id="Fill-68" fill="#037F3A" points="253.389574 366.203519 228.169464 386.432227 227.844219 380.341863 228.128809 380.12435 247.548699 364.612955 252.400284 360.738505"></polygon>
                    <polygon id="Fill-70" fill="#037F3A" points="228.168109 386.429508 209.087016 380.046861 209.737508 374.24878 227.842863 380.339144"></polygon>
                    <polygon id="Fill-72" fill="#0D8F46" points="209.673137 374.706917 209.808656 374.611755 209.795104 374.747701"></polygon>
                    <polygon id="Fill-74" fill="#0D8F46" points="252.393508 360.747341 247.555475 364.614994 227.837443 380.337105 209.61012 374.205958 236.646186 355.717353"></polygon>
                    <path d="M218.471038,356.034106 C221.188197,359.371571 223.925683,360.64946 225.633224,361.20004 C231.175956,362.97413 236.41377,360.221232 237.599563,359.915354 C238.365246,359.663854 240.370929,358.936545 241.949727,360.119272 C242.64765,360.642663 243.054208,361.383567 243.291366,361.934146 C240.215082,366.094082 232.382077,375.433547 219.243497,378.838984 C215.509945,379.810996 212.047432,380.123671 209.086339,380.110076 C208.415519,372.626269 207.89377,366.862175 207.216175,359.371571 L218.471038,356.034106 Z" id="Fill-76" fill="#000000"></path>
                    <path d="M218.494077,342.705318 C218.494077,347.15074 218.480525,351.602959 218.466973,356.027989 L207.218885,359.372251 C207.164678,358.801279 207.124022,358.230308 207.069814,357.659336 C206.514186,354.729708 205.945005,351.759296 205.348721,348.761695 C204.522055,344.581367 203.654732,340.339864 202.746754,336.037185 C202.272437,333.828069 201.784568,331.639344 201.283148,329.396242 C201.296699,329.396242 201.296699,329.382647 201.283148,329.355458 C201.296699,328.866054 201.296699,328.369852 201.296699,327.873651 L201.296699,327.860056 C201.310251,327.79888 201.310251,327.737705 201.310251,327.669732 L200.903694,327.57457 C200.564896,326.126749 200.23965,324.658537 199.900852,323.183527 C192.908066,292.487005 183.597902,259.010396 171.143694,223.582967 C169.55812,219.069572 167.958995,214.617353 166.332765,210.233107 C164.31353,204.761295 162.267191,199.377849 160.193749,194.096361 C156.250142,183.988804 152.225224,174.214314 148.132546,164.752499 L148.132546,164.738904 C143.579104,153.101959 139.140852,143.952819 135.962929,137.794482 C124.199869,114.996401 112.016699,98.9956018 109.279213,81.2411036 C108.879432,78.6309476 107.734295,70.7664934 109.68577,61.6377449 C111.108721,54.990004 113.751344,48.9268293 117.315497,43.6113555 C117.329049,43.5977609 117.329049,43.5841663 117.342601,43.5705718 C119.60577,40.1991204 122.248393,37.1267493 125.189158,34.4214314 C137.114842,23.3962415 153.986973,18.1759296 171.021727,21.8328669 C173.772765,22.417433 176.42894,23.2195122 178.976699,24.2255098 C181.890361,25.3538585 184.654951,26.7337065 187.243366,28.3310676 C198.952219,35.5429828 207.286645,47.1731307 210.44424,60.4618153 C211.189596,63.5205918 211.636809,66.6609356 211.78588,69.8488605 C211.894295,69.8352659 211.989158,69.8148741 212.097574,69.8012795 C212.734514,83.355058 213.34435,97.0039984 213.886426,110.741303 C214.171016,117.82407 214.455607,124.947621 214.699541,132.091563 C214.875716,136.577769 215.038339,141.057177 215.173858,145.570572 L215.173858,145.584166 C215.309377,149.309076 215.444896,153.054378 215.553311,156.79968 C215.878557,166.846062 216.176699,176.960416 216.447738,187.101959 C216.705224,196.482207 216.935607,205.889644 217.138885,215.358257 C217.816481,245.932427 218.223038,276.105558 218.399213,305.877649 L218.399213,305.891244 C218.412765,307.563375 218.412765,309.2491 218.426317,310.921232 L218.426317,313.334266 C218.439869,315.373451 218.453421,317.405838 218.453421,319.431427 C218.466973,322.870852 218.480525,326.310276 218.480525,329.742903 C218.494077,330.279888 218.494077,330.810076 218.480525,331.353858 C218.494077,331.938425 218.494077,332.522991 218.480525,333.107557 C218.494077,336.322671 218.494077,339.510596 218.494077,342.705318" id="Fill-78" fill="#E5FFF1"></path>
                    <path d="M218.494077,342.705318 C218.494077,347.15074 218.480525,351.602959 218.466973,356.027989 L207.218885,359.372251 C207.164678,358.801279 207.124022,358.230308 207.069814,357.659336 C206.514186,354.729708 205.945005,351.759296 205.348721,348.761695 C204.522055,344.581367 203.654732,340.339864 202.746754,336.037185 C202.272437,333.828069 201.784568,331.639344 201.283148,329.396242 C201.296699,329.396242 201.296699,329.382647 201.283148,329.355458 C201.296699,328.866054 201.296699,328.369852 201.296699,327.873651 L201.296699,327.860056 C201.310251,327.79888 201.310251,327.737705 201.310251,327.669732 L200.903694,327.57457 C200.564896,326.126749 200.23965,324.658537 199.900852,323.183527 C192.908066,292.487005 183.597902,259.010396 171.143694,223.582967 C169.55812,219.069572 167.958995,214.617353 166.332765,210.233107 C164.31353,204.761295 162.267191,199.377849 160.193749,194.096361 C156.250142,183.988804 152.225224,174.214314 148.132546,164.752499 L148.132546,164.738904 C143.579104,153.101959 139.134077,143.959616 135.962929,137.794482 C135.488612,136.890444 135.027847,135.986405 134.55353,135.102759 C137.047082,135.605758 139.621945,136.135946 142.305224,136.679728 C143.443585,136.931228 147.034842,137.658537 151.669596,139.215114 C155.491235,140.472611 158.255825,141.777689 159.461945,142.335066 C159.461945,142.335066 168.799213,146.671731 180.494514,151.280288 C192.189814,155.909236 206.256699,160.810076 215.715934,161.952019 C215.973421,170.305878 216.217355,178.686925 216.447738,187.101959 C216.705224,196.482207 216.935607,205.889644 217.138885,215.358257 C217.816481,245.932427 218.223038,276.105558 218.399213,305.877649 L218.399213,305.891244 C218.412765,307.563375 218.412765,309.2491 218.426317,310.921232 L218.426317,313.334266 C218.439869,315.373451 218.453421,317.405838 218.453421,319.431427 C218.466973,322.870852 218.480525,326.310276 218.480525,329.742903 C218.494077,330.279888 218.494077,330.810076 218.480525,331.353858 C218.494077,331.938425 218.494077,332.522991 218.480525,333.107557 C218.494077,336.322671 218.494077,339.510596 218.494077,342.705318" id="Fill-80" fill="#D4F3E2"></path>
                    <path d="M206.609727,4.73294682 C199.928634,7.76453419 191.092787,12.7265494 182.392459,20.8560976 C181.199891,21.9708517 180.06153,23.0992003 178.977377,24.227549 C172.892568,30.5762095 168.406885,37.1695722 165.086667,43.259936 C145.192459,39.7117553 128.347432,41.4926429 117.316175,43.6133946 C117.329727,43.5998001 117.343279,43.5862055 117.343279,43.572611 C118.928852,41.4926429 120.622842,39.4398641 122.438798,37.4006797 C123.319672,36.4082767 124.214098,35.4294682 125.122077,34.4914434 C125.135628,34.4642543 125.162732,34.4370652 125.189836,34.4234706 C125.772568,33.8796881 126.368852,33.3495002 126.978689,32.8465014 C126.368852,33.3223111 125.772568,33.852499 125.189836,34.4234706 C143.091913,15.6629748 164.937596,5.9972411 183.056503,0.844902039 C191.811038,1.90527789 199.671148,3.26473411 206.609727,4.73294682" id="Fill-82" fill="#E5FFF1"></path>
                    <path d="M316.649224,169.036146 C314.42671,177.818233 301.945399,210.853019 283.176,257.060936 C282.010536,259.915794 280.817967,262.82503 279.611847,265.788645 C276.982776,272.218872 274.24529,278.866613 271.41294,285.718273 C268.824525,283.488764 263.715454,279.682287 256.207694,277.697481 C249.269115,275.862215 243.401137,276.392403 240.108022,276.94978 C241.612284,271.851819 243.130098,266.753858 244.634361,261.655898 C244.634361,261.655898 246.104743,256.693882 246.856874,254.144902 C248.232393,249.488764 252.067585,235.554338 264.684415,185.927389 C209.94824,145.259256 186.537311,128.286445 179.08376,123.304038 C178.792393,123.106917 177.870863,122.488365 176.685071,121.604718 C168.824962,115.718273 162.726601,107.792643 159.013377,98.7930428 C156.601137,92.9813675 155.191738,86.707477 154.947803,80.25006 C154.758077,75.7910436 155.123978,71.2368653 156.099716,66.6690924 C156.438514,65.064934 156.845071,63.4879648 157.33294,61.9653739 C159.447038,55.10012 162.821464,48.9145942 167.158077,43.6263095 C172.56529,36.9921631 179.476765,31.7582567 187.242011,28.332427 C197.311082,23.8666134 208.816656,22.4391843 220.403541,24.9201919 C234.890536,28.0333467 246.762011,36.6794882 254.296874,48.1940824 C254.351082,48.2620552 254.391738,48.330028 254.445945,48.4115954 C254.473049,48.452379 254.500153,48.49996 254.527257,48.5339464 C254.811847,48.982567 255.109989,49.4311875 255.367475,49.8934026 C284.937749,98.0181527 306.268459,133.037745 312.204197,142.282047 C313.342557,144.04934 316.445945,148.793842 317.475891,155.631907 C318.438077,161.980568 317.164197,167.037745 316.649224,169.036146" id="Fill-84" fill="#E5FFF1"></path>
                    <path d="M256.426557,35.0155138 C258.283169,39.4677329 257.497158,44.5792883 254.488634,48.3585766 C254.475082,48.3789684 254.46153,48.392563 254.447978,48.4129548 C254.447978,48.3857657 254.420874,48.3585766 254.407322,48.3313874 C254.366667,48.2906038 254.339563,48.2362255 254.298907,48.1886445 C254.353115,48.2634146 254.39377,48.3313874 254.447978,48.4129548 C253.390929,49.7180328 252.347432,51.029908 251.290383,52.3417833 C244.82612,60.4169532 238.361858,68.4785286 231.897596,76.5536985 C229.471803,74.3377849 226.287104,71.5780888 222.357049,68.5736905 C217.607104,64.9439424 212.721639,61.8307877 210.444918,60.4577369 C194.453661,50.8055978 180.73235,42.5197121 169.552022,47.2166333 C166.780656,48.3789684 162.13235,51.1930428 158.297158,59.057497 C162.315301,48.5828868 168.93541,34.7028389 178.977377,24.2282287 C180.603607,22.5357057 182.311148,20.9383447 182.392459,20.8567773 C191.092787,12.7272291 199.928634,7.76521391 206.609727,4.73362655 C215.147432,6.54170332 222.302842,8.51291483 227.994645,10.2802079 C228.225027,10.3481807 228.468962,10.4297481 228.699344,10.4977209 C230.718579,11.1230708 232.602295,11.7620152 234.445355,12.5029188 C237.589399,13.7740104 240.543716,15.3305878 243.565792,17.7028389 C250.152022,22.8347861 254.061749,29.3601759 256.426557,35.0155138" id="Fill-86" fill="#E5FFF1"></path>
                    <path d="M180.617836,391.79936 C162.885158,475.446701 116.144612,536.241583 76.1935738,527.581847 C36.2560874,518.935706 18.2591475,444.104438 35.9782732,360.4503 C53.7109508,276.802959 100.444721,216.008077 140.382208,224.667813 C180.319694,233.327549 198.330186,308.145222 180.617836,391.79936 M140.056962,194.664614 C88.4648306,183.564654 29.4326995,255.119632 8.21040437,354.468693 C-13.0118907,453.831347 11.6119344,543.351539 63.2040656,554.444702 C114.809749,565.537865 173.84188,493.982887 195.064175,394.640624 C216.28647,295.291563 191.662645,205.757777 140.056962,194.664614" id="Fill-88" fill="#0D2418"></path>
                    <path d="M302.336372,296.179288 L108.415279,375.014154 L115.58424,390.511955 L305.202601,302.820232 C307.364131,301.821032 307.980743,299.040944 306.456153,297.205678 C305.446536,296.009356 303.786426,295.594722 302.336372,296.179288" id="Fill-90" fill="#0D8F46"></path>
                    <path d="M119.63423,380.707557 C120.528656,385.594802 117.310077,390.278129 112.438164,391.17537 C107.573027,392.072611 102.897617,388.837105 102.003191,383.956657 C101.115541,379.07621 104.33412,374.386086 109.199257,373.488844 C114.071169,372.598401 118.739803,375.827109 119.63423,380.707557" id="Fill-92" fill="#0D8F46"></path>
                    <path d="M310.704,414.793203 C310.98859,416.342983 309.965421,417.817993 308.427279,418.103479 C306.889137,418.382167 305.411978,417.362575 305.127388,415.819592 C304.849574,414.276609 305.865967,412.794802 307.404109,412.509316 C308.942251,412.230628 310.41941,413.25022 310.704,414.793203" id="Fill-94" fill="#037F3A"></path>
                    <path d="M305.198536,302.82431 L188.624984,356.740344 C195.184109,352.356098 202.447934,347.162975 210.158973,341.018233 C216.284437,336.151379 221.800066,331.406877 226.71941,326.927469 L302.339082,296.183367 C302.447497,296.14938 302.569464,296.108597 302.67788,296.067813 C304.033071,295.653179 305.537333,296.108597 306.458863,297.209756 C307.976678,299.038225 307.366842,301.831907 305.198536,302.82431" id="Fill-96" fill="#087739"></path>
                    <path d="M305.198536,302.82431 L188.624984,356.740344 C195.184109,352.356098 202.447934,347.162975 210.158973,341.018233 C216.284437,336.151379 221.800066,331.406877 226.71941,326.927469 L302.339082,296.183367 C302.447497,296.14938 302.569464,296.108597 302.67788,296.067813 C304.033071,295.653179 305.537333,296.108597 306.458863,297.209756 C307.976678,299.038225 307.366842,301.831907 305.198536,302.82431" id="Fill-98" fill="#037F3A"></path>
                    <path d="M215.357486,314.931627 C216.34,311.961216 228.401202,313.089477 236.329071,314.782087 C239.141093,315.373451 246.181311,317.052379 260.742842,324.386645 C271.564044,329.838065 271.774098,330.980008 280.772568,335.602159 C298.545902,344.737705 309.739781,346.45062 309.434863,347.939224 C309.048634,349.788085 291.363388,349.421032 273.12929,343.786086 C260.614098,339.911635 262.308087,338.028788 246.784372,333.127949 C240.577596,331.170332 233.13082,329.205918 224.369508,323.570972 C220.920546,321.341463 214.585027,317.269892 215.357486,314.931627" id="Fill-100" fill="#000000"></path>
                    <path d="M309.433508,347.942623 C309.453836,346.352059 309.284437,343.979808 308.146077,341.505598 C306.160721,337.209716 302.664328,335.646341 298.578426,332.34966 C296.152634,330.385246 293.93012,327.693523 289.498645,322.316873 C279.890339,310.679928 272.843344,290.016194 271.413617,285.720312 C268.831978,283.497601 263.716131,279.684326 256.208372,277.69952 C249.269792,275.864254 243.395038,276.40124 240.108699,276.951819 C238.794164,278.671531 236.707169,281.356457 234.071322,284.59876 C227.261486,292.945822 224.944109,294.896641 222.179519,299.008996 C219.970557,302.285286 217.15176,307.430828 215.356131,314.935026" id="Fill-102" fill="#0D2418"></path>
                    <polygon id="Fill-104" fill="#0D8F46" points="310.737202 347.212595 308.372393 358.271771 284.236437 349.340144 259.463541 340.170612 199.055891 327.187805 203.223104 307.659216 263.630754 320.642023"></polygon>
                    <polygon id="Fill-106" fill="#037F3A" points="308.374426 358.271092 283.472787 352.921631 199.051148 327.187125 259.465574 340.169932 284.23847 349.346261"></polygon>
                    <path d="M170.893661,90.4820072 C175.80623,88.3884446 183.585027,85.9686126 192.285355,87.6203519 C206.277705,90.2712915 214.930601,101.955818 235.109399,135.221711 C243.68776,149.366853 253.729727,166.387245 264.679672,185.929428 L191.953333,133.114554 L170.893661,90.4820072 Z" id="Fill-108" fill="#D4F3E2"></path>
                    <path d="M160.944525,104.667253 C158.932066,105.204238 132.24835,111.885966 116.914361,95.7016393 C114.60376,93.2614154 111.791738,89.5093163 109.799607,83.9423431 C119.374033,86.9263495 129.653158,90.5968812 140.420153,95.1510596 C147.73141,98.2438225 154.575126,101.445342 160.944525,104.667253" id="Fill-110" fill="#D0E7D9"></path>
                    <path d="M81.2179454,114.206557 C77.1591475,106.110996 79.571388,94.9362655 85.452918,88.9886445 C93.2317158,81.117393 106.309311,82.0758097 114.155869,85.4064774 C123.364393,89.314914 123.689639,95.7655338 134.422754,99.2865254 C141.591716,101.631587 147.981443,100.897481 150.407235,100.510036 C161.96024,98.6747701 163.240896,92.1901639 175.295322,88.9478609 C179.970732,87.6971611 188.393246,85.4336665 196.260131,89.6139944 C204.804612,94.1613754 210.164393,104.962255 208.524612,113.82591 C207.393027,119.957057 199.621005,124.45006 198.496197,130.859896 C198.333574,131.784326 198.001552,133.77593 198.90953,135.944262 C199.709093,137.854298 201.091388,139.009836 201.890951,139.580808 C210.787781,146.112995 219.684612,152.645182 228.581443,159.177369 C227.321115,159.952259 225.478055,160.890284 223.120022,161.495242 C220.036962,162.283727 217.394339,162.168173 215.720678,161.95066 C196.795432,159.659976 159.459913,142.333707 159.459913,142.333707 C158.253792,141.776329 155.482426,140.478049 151.674339,139.213754 C147.039585,137.663974 143.448328,136.923071 142.303191,136.691963 C105.30647,129.140184 86.8081093,125.37449 81.2179454,114.206557" id="Fill-112" fill="#0D2418"></path>
                    <path d="M101.764,380.548501 C112.734273,301.407757 123.19635,207.598481 134.214055,128.763615 C134.769683,124.739624 138.469355,121.939144 142.480721,122.489724 C146.464984,123.040304 149.263454,126.683647 148.775585,130.687245 C139.221486,209.787205 130.439847,303.616873 120.899301,383.022711 C120.255585,388.378968 115.376896,392.171851 110.044219,391.451339 C104.745421,390.75122 101.025421,385.857177 101.764,380.548501" id="Fill-114" fill="#0D8F46"></path>
                    <path d="M144.610404,166.440264 C143.892153,172.748141 143.187454,179.110396 142.482754,185.513435 L126.830295,184.031627 C127.656962,177.628589 128.483628,171.279928 129.310295,164.99924 L144.610404,166.440264 Z" id="Fill-116" fill="#037F3A"></path>
                    <path d="M127.243628,173.662375 L101.488219,171.242543 C96.2233005,170.746341 92.3610055,166.069812 92.8556503,160.788325 C93.3502951,155.513635 98.012153,151.639184 103.270295,152.135386 L129.032481,154.555218 C134.290623,155.058217 138.152918,159.727949 137.658273,165.009436 C137.163628,170.284126 132.50177,174.158577 127.243628,173.662375" id="Fill-118" fill="#E5FFF1"></path>
                </g>
            </g>
        </g>
    </g>
</svg>