<svg id="tugut_pictos_website_konzeptvorstellung" data-name="tugut pictos website konzeptvorstellung" xmlns="http://www.w3.org/2000/svg" xmlns:xlink="http://www.w3.org/1999/xlink" viewBox="0 0 470 290"><defs><style>.cls-1,.cls-10,.cls-2,.cls-3{fill:none;}.cls-1{clip-rule:evenodd;}.cls-3{stroke:#50de93;}.cls-10,.cls-3{stroke-miterlimit:10;stroke-width:8px;}.cls-4{clip-path:url(#clip-path);}.cls-5{clip-path:url(#clip-path-2);}.cls-6{fill:#f2f4f3;}.cls-7{opacity:0.75;isolation:isolate;}.cls-8{clip-path:url(#clip-path-3);}.cls-9{clip-path:url(#clip-path-4);}.cls-10{stroke:#072514;}.cls-11{clip-path:url(#clip-path-5);}.cls-12{clip-path:url(#clip-path-6);}</style><clipPath id="clip-path"><polygon class="cls-1" points="360.5 196.67 296.96 135.75 330.34 216.35 345.67 208.65 360.5 196.67"/></clipPath><clipPath id="clip-path-2"><rect class="cls-2" x="-537.89" y="-651.72" width="2880" height="1800"/></clipPath><clipPath id="clip-path-3"><rect class="cls-2" x="167.11" y="3.28" width="286" height="286"/></clipPath><clipPath id="clip-path-4"><rect class="cls-2" x="203.11" y="39.28" width="220" height="220"/></clipPath><clipPath id="clip-path-5"><path id="SVGID" class="cls-1" d="M924.65,229.09H728.24c0,.82,196.14-69.09,196.28-69.09Z"/></clipPath><clipPath id="clip-path-6"><path class="cls-1" d="M1337.73,245V45.28q-23.94,99.87-47.89,199.73Z"/></clipPath></defs><title>tugut_picto-ziel</title><g id="picto-ziel"><path class="cls-3" d="M104.79,222H85.09c-22.08,0-40-40.22-40-89.85s17.9-89.85,40-89.85h19.7c-22.08,0-40,40.23-40,89.85S82.71,222,104.79,222Z"/><path class="cls-3" d="M126.16,208.09C120,216.89,112.65,222,104.79,222c-22.08,0-40-40.22-40-89.85s17.9-89.85,40-89.85c7.86,0,15.19,5.1,21.37,13.9"/><path class="cls-3" d="M227.09,215.84A52.32,52.32,0,0,1,202.68,222c-18.9,0-36-10.48-48.16-27.35-11.68-16.17-18.88-38.21-18.88-62.5s7.2-46.32,18.88-62.49c12.18-16.87,29.26-27.36,48.16-27.36a52.32,52.32,0,0,1,24.41,6.14"/><path class="cls-3" d="M202.68,222H183c-13.17,0-25.46-5.1-35.82-13.89-18.76-15.93-31.22-44-31.22-76s12.46-60,31.22-75.95c10.36-8.8,22.65-13.9,35.82-13.9h19.7c-18.9,0-36,10.49-48.16,27.36-11.68,16.17-18.88,38.2-18.88,62.49s7.2,46.33,18.88,62.5C166.7,211.5,183.78,222,202.68,222Z"/><line class="cls-3" x1="152.54" y1="72.23" x2="132.84" y2="72.23"/><line class="cls-3" x1="139.43" y1="102.18" x2="119.73" y2="102.18"/><line class="cls-3" x1="135.01" y1="132.13" x2="115.31" y2="132.13"/><line class="cls-3" x1="139.43" y1="162.08" x2="119.73" y2="162.08"/><line class="cls-3" x1="152.54" y1="192.03" x2="132.84" y2="192.03"/><line class="cls-3" x1="74.54" y1="72.23" x2="54.84" y2="72.23"/><line class="cls-3" x1="67.43" y1="102.18" x2="47.73" y2="102.18"/><line class="cls-3" x1="65.01" y1="132.13" x2="45.31" y2="132.13"/><line class="cls-3" x1="67.43" y1="162.08" x2="47.73" y2="162.08"/><line class="cls-3" x1="74.54" y1="192.03" x2="54.84" y2="192.03"/><g class="cls-4"><g class="cls-5"><rect class="cls-6" x="291.96" y="130.75" width="73.53" height="90.59"/></g></g><g class="cls-7"><g class="cls-8"><g class="cls-9"><path class="cls-10" d="M315.89,141a20.52,20.52,0,1,0-4.45,6.65"/><path class="cls-10" d="M348.51,154.48a55.85,55.85,0,1,0-12.11,18.1"/><path class="cls-10" d="M380,167.52a89.91,89.91,0,1,0-19.49,29.15"/><path class="cls-10" d="M371.84,208,297,133.13Z"/><polyline class="cls-10" points="386.81 196.96 412.84 222.98 386.81 222.98 386.81 249.01 360.79 222.98"/><path class="cls-10" d="M371.84,208,297,133.13Z"/></g></g></g></g></svg>