<?xml version="1.0" encoding="UTF-8"?>
<svg width="3220px" height="600px" viewBox="0 0 3220 600" version="1.1" xmlns="http://www.w3.org/2000/svg" xmlns:xlink="http://www.w3.org/1999/xlink">
    <title>Group 2</title>
    <g id="Page-1" stroke="none" stroke-width="1" fill="none" fill-rule="evenodd">
        <g id="Done" transform="translate(170.000000, 165.000000)" fill="#0D8E47">
            <g id="Group-2" transform="translate(-170.000000, -165.000000)">
                <g id="Group-42" transform="translate(793.596452, 0.000000)">
                    <polygon id="Fill-1" points="456.403548 256 464.403548 256 464.403548 221 456.403548 221"></polygon>
                    <polygon id="Fill-2" points="317.403548 559.125242 311.528789 565 288.403548 541.872682 294.278306 536"></polygon>
                    <polygon id="Fill-3" points="669.403548 326 677.403548 326 677.403548 291 669.403548 291"></polygon>
                    <polygon id="Fill-4" points="165.403548 35 173.403548 35 173.403548 0 165.403548 0"></polygon>
                    <polygon id="Fill-5" points="69.4035477 342 77.4035477 342 77.4035477 307 69.4035477 307"></polygon>
                    <polygon id="Fill-6" points="560.403548 35 568.403548 35 568.403548 0 560.403548 0"></polygon>
                    <polygon id="Fill-7" points="317.403548 333.126898 311.528789 339 288.403548 315.873102 294.278306 310"></polygon>
                    <polygon id="Fill-8" points="179.278306 261 173.403548 255.126898 196.530866 232 202.403548 237.873102"></polygon>
                    <polygon id="Fill-9" points="70.278306 263 64.4035477 257.126898 87.530866 234 93.4035477 239.873102"></polygon>
                    <polygon id="Fill-10" points="139.27665 197 133.403548 191.126898 156.530445 168 162.403548 173.873102"></polygon>
                    <polygon id="Fill-11" points="139.27665 541 133.403548 535.125242 156.530445 512 162.403548 517.874758"></polygon>
                    <polygon id="Fill-12" points="807.403548 284.127318 813.27665 290 836.403548 266.874758 830.530445 261"></polygon>
                    <polygon id="Fill-13" points="555.278306 306 549.403548 300.126898 572.530866 277 578.403548 282.873102"></polygon>
                    <polygon id="Fill-14" points="416.403548 528 424.403548 528 424.403548 493 416.403548 493"></polygon>
                    <polygon id="Fill-15" points="627.278306 93 621.403548 87.1252417 644.530866 64 650.403548 69.8747583"></polygon>
                    <polygon id="Fill-16" points="783.403548 441 791.403548 441 791.403548 406 783.403548 406"></polygon>
                    <polygon id="Fill-17" points="547.278306 202 541.403548 196.125242 564.530866 173 570.403548 178.874758"></polygon>
                    <polygon id="Fill-18" points="723.27665 32 717.403548 26.1252417 740.530445 3 746.403548 8.87475832"></polygon>
                    <polygon id="Fill-19" points="70.278306 64 64.4035477 58.1252417 87.530866 35 93.4035477 40.8747583"></polygon>
                    <polygon id="Fill-20" points="554.403548 594.125242 560.27665 600 583.403548 576.874758 577.532522 571"></polygon>
                    <polygon id="Fill-21" points="230.403548 130.874758 236.278306 125 259.403548 148.127318 253.528789 154"></polygon>
                    <polygon id="Fill-22" points="395.403548 109 430.403548 109 430.403548 101 395.403548 101"></polygon>
                    <polygon id="Fill-23" points="491.278306 133 485.403548 127.125242 508.530866 104 514.403548 109.874758"></polygon>
                    <polygon id="Fill-24" points="634.403548 472 669.403548 472 669.403548 464 634.403548 464"></polygon>
                    <polygon id="Fill-25" points="666.403548 117 701.403548 117 701.403548 109 666.403548 109"></polygon>
                    <polygon id="Fill-26" points="562.403548 197 597.403548 197 597.403548 189 562.403548 189"></polygon>
                    <polygon id="Fill-27" points="256.403548 285 291.403548 285 291.403548 277 256.403548 277"></polygon>
                    <polygon id="Fill-28" points="222.403548 83 257.403548 83 257.403548 75 222.403548 75"></polygon>
                    <polygon id="Fill-29" points="146.403548 369 181.403548 369 181.403548 361 146.403548 361"></polygon>
                    <polygon id="Fill-30" points="334.403548 178.874758 340.278306 173 363.403548 196.127318 357.528789 202"></polygon>
                    <polygon id="Fill-31" points="125.403548 249.125242 119.528789 255 96.4035477 231.872682 102.278306 226"></polygon>
                    <polygon id="Fill-32" points="541.403548 92.1268977 535.530445 98 512.403548 74.8731023 518.27665 69"></polygon>
                    <polygon id="Fill-33" points="132.403548 103.125242 126.528789 109 103.403548 85.8726817 109.278306 80"></polygon>
                    <polygon id="Fill-34" points="786.403548 108.125242 780.528789 114 757.403548 90.8726817 763.278306 85"></polygon>
                    <polygon id="Fill-35" points="653.403548 76.1268977 647.528789 82 624.403548 58.8731023 630.278306 53"></polygon>
                    <polygon id="Fill-36" points="443.403548 392.126898 437.530445 398 414.403548 374.873102 420.27665 369"></polygon>
                    <polygon id="Fill-37" points="437.403548 369 472.403548 369 472.403548 361 437.403548 361"></polygon>
                    <polygon id="Fill-38" points="213.278306 422 207.403548 416.126898 230.530866 393 236.403548 398.873102"></polygon>
                    <polygon id="Fill-39" points="717.403548 239.126898 711.530445 245 688.403548 221.873102 694.27665 216"></polygon>
                    <polygon id="Fill-40" points="0.403547672 167.874338 23.5325222 191 29.4035477 185.125662 6.2787267 162"></polygon>
                    <polygon id="Fill-41" points="363.403548 60.1268977 357.528789 66 334.403548 42.8731023 340.278306 37"></polygon>
                </g>
                <g id="Group-42-Copy-3" transform="translate(1588.000000, 0.000000)">
                    <polygon id="Fill-1" points="456.403548 256 464.403548 256 464.403548 221 456.403548 221"></polygon>
                    <polygon id="Fill-2" points="317.403548 559.125242 311.528789 565 288.403548 541.872682 294.278306 536"></polygon>
                    <polygon id="Fill-3" points="669.403548 326 677.403548 326 677.403548 291 669.403548 291"></polygon>
                    <polygon id="Fill-4" points="165.403548 35 173.403548 35 173.403548 0 165.403548 0"></polygon>
                    <polygon id="Fill-5" points="69.4035477 342 77.4035477 342 77.4035477 307 69.4035477 307"></polygon>
                    <polygon id="Fill-6" points="560.403548 35 568.403548 35 568.403548 0 560.403548 0"></polygon>
                    <polygon id="Fill-7" points="317.403548 333.126898 311.528789 339 288.403548 315.873102 294.278306 310"></polygon>
                    <polygon id="Fill-8" points="179.278306 261 173.403548 255.126898 196.530866 232 202.403548 237.873102"></polygon>
                    <polygon id="Fill-9" points="70.278306 263 64.4035477 257.126898 87.530866 234 93.4035477 239.873102"></polygon>
                    <polygon id="Fill-10" points="139.27665 197 133.403548 191.126898 156.530445 168 162.403548 173.873102"></polygon>
                    <polygon id="Fill-11" points="139.27665 541 133.403548 535.125242 156.530445 512 162.403548 517.874758"></polygon>
                    <polygon id="Fill-12" points="807.403548 284.127318 813.27665 290 836.403548 266.874758 830.530445 261"></polygon>
                    <polygon id="Fill-13" points="555.278306 306 549.403548 300.126898 572.530866 277 578.403548 282.873102"></polygon>
                    <polygon id="Fill-14" points="416.403548 528 424.403548 528 424.403548 493 416.403548 493"></polygon>
                    <polygon id="Fill-15" points="627.278306 93 621.403548 87.1252417 644.530866 64 650.403548 69.8747583"></polygon>
                    <polygon id="Fill-16" points="783.403548 441 791.403548 441 791.403548 406 783.403548 406"></polygon>
                    <polygon id="Fill-17" points="547.278306 202 541.403548 196.125242 564.530866 173 570.403548 178.874758"></polygon>
                    <polygon id="Fill-18" points="723.27665 32 717.403548 26.1252417 740.530445 3 746.403548 8.87475832"></polygon>
                    <polygon id="Fill-19" points="70.278306 64 64.4035477 58.1252417 87.530866 35 93.4035477 40.8747583"></polygon>
                    <polygon id="Fill-20" points="554.403548 594.125242 560.27665 600 583.403548 576.874758 577.532522 571"></polygon>
                    <polygon id="Fill-21" points="230.403548 130.874758 236.278306 125 259.403548 148.127318 253.528789 154"></polygon>
                    <polygon id="Fill-22" points="395.403548 109 430.403548 109 430.403548 101 395.403548 101"></polygon>
                    <polygon id="Fill-23" points="491.278306 133 485.403548 127.125242 508.530866 104 514.403548 109.874758"></polygon>
                    <polygon id="Fill-24" points="634.403548 472 669.403548 472 669.403548 464 634.403548 464"></polygon>
                    <polygon id="Fill-25" points="666.403548 117 701.403548 117 701.403548 109 666.403548 109"></polygon>
                    <polygon id="Fill-26" points="562.403548 197 597.403548 197 597.403548 189 562.403548 189"></polygon>
                    <polygon id="Fill-27" points="256.403548 285 291.403548 285 291.403548 277 256.403548 277"></polygon>
                    <polygon id="Fill-28" points="222.403548 83 257.403548 83 257.403548 75 222.403548 75"></polygon>
                    <polygon id="Fill-29" points="146.403548 369 181.403548 369 181.403548 361 146.403548 361"></polygon>
                    <polygon id="Fill-30" points="334.403548 178.874758 340.278306 173 363.403548 196.127318 357.528789 202"></polygon>
                    <polygon id="Fill-31" points="125.403548 249.125242 119.528789 255 96.4035477 231.872682 102.278306 226"></polygon>
                    <polygon id="Fill-32" points="541.403548 92.1268977 535.530445 98 512.403548 74.8731023 518.27665 69"></polygon>
                    <polygon id="Fill-33" points="132.403548 103.125242 126.528789 109 103.403548 85.8726817 109.278306 80"></polygon>
                    <polygon id="Fill-34" points="786.403548 108.125242 780.528789 114 757.403548 90.8726817 763.278306 85"></polygon>
                    <polygon id="Fill-35" points="653.403548 76.1268977 647.528789 82 624.403548 58.8731023 630.278306 53"></polygon>
                    <polygon id="Fill-36" points="443.403548 392.126898 437.530445 398 414.403548 374.873102 420.27665 369"></polygon>
                    <polygon id="Fill-37" points="437.403548 369 472.403548 369 472.403548 361 437.403548 361"></polygon>
                    <polygon id="Fill-38" points="213.278306 422 207.403548 416.126898 230.530866 393 236.403548 398.873102"></polygon>
                    <polygon id="Fill-39" points="717.403548 239.126898 711.530445 245 688.403548 221.873102 694.27665 216"></polygon>
                    <polygon id="Fill-40" points="0.403547672 167.874338 23.5325222 191 29.4035477 185.125662 6.2787267 162"></polygon>
                    <polygon id="Fill-41" points="363.403548 60.1268977 357.528789 66 334.403548 42.8731023 340.278306 37"></polygon>
                </g>
                <g id="Group-42-Copy">
                    <polygon id="Fill-1" points="456.403548 256 464.403548 256 464.403548 221 456.403548 221"></polygon>
                    <polygon id="Fill-2" points="317.403548 559.125242 311.528789 565 288.403548 541.872682 294.278306 536"></polygon>
                    <polygon id="Fill-3" points="669.403548 326 677.403548 326 677.403548 291 669.403548 291"></polygon>
                    <polygon id="Fill-4" points="165.403548 35 173.403548 35 173.403548 0 165.403548 0"></polygon>
                    <polygon id="Fill-5" points="69.4035477 342 77.4035477 342 77.4035477 307 69.4035477 307"></polygon>
                    <polygon id="Fill-6" points="560.403548 35 568.403548 35 568.403548 0 560.403548 0"></polygon>
                    <polygon id="Fill-7" points="317.403548 333.126898 311.528789 339 288.403548 315.873102 294.278306 310"></polygon>
                    <polygon id="Fill-8" points="179.278306 261 173.403548 255.126898 196.530866 232 202.403548 237.873102"></polygon>
                    <polygon id="Fill-9" points="70.278306 263 64.4035477 257.126898 87.530866 234 93.4035477 239.873102"></polygon>
                    <polygon id="Fill-10" points="139.27665 197 133.403548 191.126898 156.530445 168 162.403548 173.873102"></polygon>
                    <polygon id="Fill-11" points="139.27665 541 133.403548 535.125242 156.530445 512 162.403548 517.874758"></polygon>
                    <polygon id="Fill-12" points="807.403548 284.127318 813.27665 290 836.403548 266.874758 830.530445 261"></polygon>
                    <polygon id="Fill-13" points="555.278306 306 549.403548 300.126898 572.530866 277 578.403548 282.873102"></polygon>
                    <polygon id="Fill-14" points="416.403548 528 424.403548 528 424.403548 493 416.403548 493"></polygon>
                    <polygon id="Fill-15" points="627.278306 93 621.403548 87.1252417 644.530866 64 650.403548 69.8747583"></polygon>
                    <polygon id="Fill-16" points="783.403548 441 791.403548 441 791.403548 406 783.403548 406"></polygon>
                    <polygon id="Fill-17" points="547.278306 202 541.403548 196.125242 564.530866 173 570.403548 178.874758"></polygon>
                    <polygon id="Fill-18" points="723.27665 32 717.403548 26.1252417 740.530445 3 746.403548 8.87475832"></polygon>
                    <polygon id="Fill-19" points="70.278306 64 64.4035477 58.1252417 87.530866 35 93.4035477 40.8747583"></polygon>
                    <polygon id="Fill-20" points="554.403548 594.125242 560.27665 600 583.403548 576.874758 577.532522 571"></polygon>
                    <polygon id="Fill-21" points="230.403548 130.874758 236.278306 125 259.403548 148.127318 253.528789 154"></polygon>
                    <polygon id="Fill-22" points="395.403548 109 430.403548 109 430.403548 101 395.403548 101"></polygon>
                    <polygon id="Fill-23" points="491.278306 133 485.403548 127.125242 508.530866 104 514.403548 109.874758"></polygon>
                    <polygon id="Fill-24" points="634.403548 472 669.403548 472 669.403548 464 634.403548 464"></polygon>
                    <polygon id="Fill-25" points="666.403548 117 701.403548 117 701.403548 109 666.403548 109"></polygon>
                    <polygon id="Fill-26" points="562.403548 197 597.403548 197 597.403548 189 562.403548 189"></polygon>
                    <polygon id="Fill-27" points="256.403548 285 291.403548 285 291.403548 277 256.403548 277"></polygon>
                    <polygon id="Fill-28" points="222.403548 83 257.403548 83 257.403548 75 222.403548 75"></polygon>
                    <polygon id="Fill-29" points="146.403548 369 181.403548 369 181.403548 361 146.403548 361"></polygon>
                    <polygon id="Fill-30" points="334.403548 178.874758 340.278306 173 363.403548 196.127318 357.528789 202"></polygon>
                    <polygon id="Fill-31" points="125.403548 249.125242 119.528789 255 96.4035477 231.872682 102.278306 226"></polygon>
                    <polygon id="Fill-32" points="541.403548 92.1268977 535.530445 98 512.403548 74.8731023 518.27665 69"></polygon>
                    <polygon id="Fill-33" points="132.403548 103.125242 126.528789 109 103.403548 85.8726817 109.278306 80"></polygon>
                    <polygon id="Fill-34" points="786.403548 108.125242 780.528789 114 757.403548 90.8726817 763.278306 85"></polygon>
                    <polygon id="Fill-35" points="653.403548 76.1268977 647.528789 82 624.403548 58.8731023 630.278306 53"></polygon>
                    <polygon id="Fill-36" points="443.403548 392.126898 437.530445 398 414.403548 374.873102 420.27665 369"></polygon>
                    <polygon id="Fill-37" points="437.403548 369 472.403548 369 472.403548 361 437.403548 361"></polygon>
                    <polygon id="Fill-38" points="213.278306 422 207.403548 416.126898 230.530866 393 236.403548 398.873102"></polygon>
                    <polygon id="Fill-39" points="717.403548 239.126898 711.530445 245 688.403548 221.873102 694.27665 216"></polygon>
                    <polygon id="Fill-40" points="0.403547672 167.874338 23.5325222 191 29.4035477 185.125662 6.2787267 162"></polygon>
                    <polygon id="Fill-41" points="363.403548 60.1268977 357.528789 66 334.403548 42.8731023 340.278306 37"></polygon>
                </g>
                <g id="Group-42-Copy-4" transform="translate(2382.403548, 0.000000)">
                    <polygon id="Fill-1" points="456.403548 256 464.403548 256 464.403548 221 456.403548 221"></polygon>
                    <polygon id="Fill-2" points="317.403548 559.125242 311.528789 565 288.403548 541.872682 294.278306 536"></polygon>
                    <polygon id="Fill-3" points="669.403548 326 677.403548 326 677.403548 291 669.403548 291"></polygon>
                    <polygon id="Fill-4" points="165.403548 35 173.403548 35 173.403548 0 165.403548 0"></polygon>
                    <polygon id="Fill-5" points="69.4035477 342 77.4035477 342 77.4035477 307 69.4035477 307"></polygon>
                    <polygon id="Fill-6" points="560.403548 35 568.403548 35 568.403548 0 560.403548 0"></polygon>
                    <polygon id="Fill-7" points="317.403548 333.126898 311.528789 339 288.403548 315.873102 294.278306 310"></polygon>
                    <polygon id="Fill-8" points="179.278306 261 173.403548 255.126898 196.530866 232 202.403548 237.873102"></polygon>
                    <polygon id="Fill-9" points="70.278306 263 64.4035477 257.126898 87.530866 234 93.4035477 239.873102"></polygon>
                    <polygon id="Fill-10" points="139.27665 197 133.403548 191.126898 156.530445 168 162.403548 173.873102"></polygon>
                    <polygon id="Fill-11" points="139.27665 541 133.403548 535.125242 156.530445 512 162.403548 517.874758"></polygon>
                    <polygon id="Fill-12" points="807.403548 284.127318 813.27665 290 836.403548 266.874758 830.530445 261"></polygon>
                    <polygon id="Fill-13" points="555.278306 306 549.403548 300.126898 572.530866 277 578.403548 282.873102"></polygon>
                    <polygon id="Fill-14" points="416.403548 528 424.403548 528 424.403548 493 416.403548 493"></polygon>
                    <polygon id="Fill-15" points="627.278306 93 621.403548 87.1252417 644.530866 64 650.403548 69.8747583"></polygon>
                    <polygon id="Fill-16" points="783.403548 441 791.403548 441 791.403548 406 783.403548 406"></polygon>
                    <polygon id="Fill-17" points="547.278306 202 541.403548 196.125242 564.530866 173 570.403548 178.874758"></polygon>
                    <polygon id="Fill-18" points="723.27665 32 717.403548 26.1252417 740.530445 3 746.403548 8.87475832"></polygon>
                    <polygon id="Fill-19" points="70.278306 64 64.4035477 58.1252417 87.530866 35 93.4035477 40.8747583"></polygon>
                    <polygon id="Fill-20" points="554.403548 594.125242 560.27665 600 583.403548 576.874758 577.532522 571"></polygon>
                    <polygon id="Fill-21" points="230.403548 130.874758 236.278306 125 259.403548 148.127318 253.528789 154"></polygon>
                    <polygon id="Fill-22" points="395.403548 109 430.403548 109 430.403548 101 395.403548 101"></polygon>
                    <polygon id="Fill-23" points="491.278306 133 485.403548 127.125242 508.530866 104 514.403548 109.874758"></polygon>
                    <polygon id="Fill-24" points="634.403548 472 669.403548 472 669.403548 464 634.403548 464"></polygon>
                    <polygon id="Fill-25" points="666.403548 117 701.403548 117 701.403548 109 666.403548 109"></polygon>
                    <polygon id="Fill-26" points="562.403548 197 597.403548 197 597.403548 189 562.403548 189"></polygon>
                    <polygon id="Fill-27" points="256.403548 285 291.403548 285 291.403548 277 256.403548 277"></polygon>
                    <polygon id="Fill-28" points="222.403548 83 257.403548 83 257.403548 75 222.403548 75"></polygon>
                    <polygon id="Fill-29" points="146.403548 369 181.403548 369 181.403548 361 146.403548 361"></polygon>
                    <polygon id="Fill-30" points="334.403548 178.874758 340.278306 173 363.403548 196.127318 357.528789 202"></polygon>
                    <polygon id="Fill-31" points="125.403548 249.125242 119.528789 255 96.4035477 231.872682 102.278306 226"></polygon>
                    <polygon id="Fill-32" points="541.403548 92.1268977 535.530445 98 512.403548 74.8731023 518.27665 69"></polygon>
                    <polygon id="Fill-33" points="132.403548 103.125242 126.528789 109 103.403548 85.8726817 109.278306 80"></polygon>
                    <polygon id="Fill-34" points="786.403548 108.125242 780.528789 114 757.403548 90.8726817 763.278306 85"></polygon>
                    <polygon id="Fill-35" points="653.403548 76.1268977 647.528789 82 624.403548 58.8731023 630.278306 53"></polygon>
                    <polygon id="Fill-36" points="443.403548 392.126898 437.530445 398 414.403548 374.873102 420.27665 369"></polygon>
                    <polygon id="Fill-37" points="437.403548 369 472.403548 369 472.403548 361 437.403548 361"></polygon>
                    <polygon id="Fill-38" points="213.278306 422 207.403548 416.126898 230.530866 393 236.403548 398.873102"></polygon>
                    <polygon id="Fill-39" points="717.403548 239.126898 711.530445 245 688.403548 221.873102 694.27665 216"></polygon>
                    <polygon id="Fill-40" points="0.403547672 167.874338 23.5325222 191 29.4035477 185.125662 6.2787267 162"></polygon>
                    <polygon id="Fill-41" points="363.403548 60.1268977 357.528789 66 334.403548 42.8731023 340.278306 37"></polygon>
                </g>
            </g>
        </g>
    </g>
</svg>