<svg xmlns="http://www.w3.org/2000/svg" viewBox="0 0 130.97 45.82"><defs><style>.a{fill:#50dd93;}</style></defs><title>tugut-WB_s</title><path class="a" d="M103.37,21.34a6.42,6.42,0,0,1-12.83,0V5.52H85V21.34a12,12,0,0,0,23.91,0V5.52h-5.54Z"/><path class="a" d="M17.48,27.75a6.41,6.41,0,0,1-6.4-6.4V10.24h7.27V5.53H11.08V0H5.54V5.53H0v4.71H5.54V21.35a12,12,0,0,0,16.69,11,17.59,17.59,0,0,1-2.78-4.88A6.2,6.2,0,0,1,17.48,27.75Z"/><path class="a" d="M42.26,21.34a6.42,6.42,0,0,1-12.83,0h0V5.52H23.89V21.34h0a12,12,0,0,0,12,11.95,12,12,0,0,0,11.95-12V5.52H42.26Z"/><path class="a" d="M128.86,27.27a6.5,6.5,0,0,1-2.46.48,6.41,6.41,0,0,1-6.4-6.4V10.24h6.41V5.52H120V0h-5.54V21.35a11.94,11.94,0,0,0,16.51,11Z"/><path class="a" d="M73.86,8.21a13.39,13.39,0,1,0-9,24.19c.39,0,.77.05,1.16.05a13.34,13.34,0,0,0,7.85-2.55v2.54A7.85,7.85,0,0,1,58.61,35l-5.06,2.1-.07,0A13.39,13.39,0,0,0,79.4,32.44V5.52H73.86ZM66,26.91a7.85,7.85,0,1,1,7.85-7.85A7.86,7.86,0,0,1,66,26.91Z"/></svg>