<?xml version="1.0" encoding="UTF-8"?>
<svg width="183px" height="67px" viewBox="0 0 183 67" version="1.1" xmlns="http://www.w3.org/2000/svg" xmlns:xlink="http://www.w3.org/1999/xlink">
    <!-- Generator: Sketch 62 (91390) - https://sketch.com -->
    <title>tugut WM B Copy 3</title>
    <desc>Created with Sketch.</desc>
    <g id="Page-1" stroke="none" stroke-width="1" fill="none" fill-rule="evenodd">
        <rect id="Rectangle" fill="#50DE93" x="-1348" y="-165" width="2880" height="1800"></rect>
        <g id="tugut-WM" fill="#FFFFFF">
            <path d="M110.811657,8.78744156 L110.811657,47.3898831 C110.811657,57.9793636 102.434192,66.5884286 92.1380563,66.5884286 C84.1399229,66.5884286 77.3017983,61.4198571 74.6329314,54.1699351 L74.6329314,54.1699351 L74.7260708,54.1316494 L81.78773,51.1262208 C83.2881208,55.4977532 87.3506917,58.6371818 92.1075743,58.6371818 C98.1717953,58.6371818 103.076007,53.5904286 103.076007,47.3898831 L103.076007,47.3898831 L103.076007,43.7492597 C99.9973273,46.0464026 96.2141746,47.4055455 92.1228153,47.4055455 C91.5826068,47.4055455 91.0390115,47.3829221 90.5055768,47.3341948 C80.9443951,46.4919091 73.4255062,38.2326364 73.4255062,28.200039 C73.4255062,17.6105584 81.8114382,8.99453247 92.1228153,8.99453247 C96.2141746,8.99453247 99.9973273,10.3536753 103.076007,12.6525584 L103.076007,12.6525584 L103.076007,8.78744156 L110.811657,8.78744156 Z M41.0768415,8.78744156 L41.0768415,31.4908701 C41.0836153,36.555026 45.0987697,40.6724805 50.0266901,40.6724805 C54.9613843,40.6724805 58.9765387,36.5463247 58.9765387,31.4752078 L58.9765387,31.4752078 L58.9765387,8.78744156 L66.7104949,8.78744156 L66.7104949,31.4752078 C66.7104949,40.9265584 59.2237815,48.621987 50.0266901,48.621987 C44.882009,48.621987 40.2724559,46.2134675 37.2157905,42.4371039 C34.7958598,39.4717013 33.3411919,35.6483506 33.3411919,31.4908701 L33.3411919,31.4908701 L33.3411919,8.78744156 L41.0768415,8.78744156 Z M167.465808,0.868911688 L167.465808,8.79231429 L176.405495,8.79231429 L176.405495,15.5497429 L167.465808,15.5497429 L167.465808,31.4905221 C167.465808,36.5546779 171.472495,40.6721325 176.393641,40.6721325 C177.606147,40.6721325 178.767849,40.4267558 179.827945,39.9725481 L179.827945,39.9725481 L182.78131,47.3181844 C180.816916,48.1604701 178.666242,48.621639 176.415656,48.621639 C167.211791,48.621639 159.730158,40.9349117 159.730158,31.4905221 L159.730158,31.4905221 L159.730158,0.868911688 L167.465808,0.868911688 Z M15.4646949,0.869607792 L15.4646949,8.79649091 L25.6135014,8.79649091 L25.6135014,15.5521792 L15.4646949,15.5521792 L15.4646949,31.4912182 C15.4646949,36.555374 19.4713821,40.6728286 24.3908353,40.6728286 C25.3493242,40.6728286 26.2705575,40.521426 27.1376005,40.2273221 C28.0656075,42.7785429 29.3881869,45.1331143 31.0206663,47.2144649 C28.9936145,48.1211403 26.7582692,48.6205948 24.4145435,48.6205948 C15.2005177,48.6205948 7.72904522,40.9338675 7.72904522,31.4912182 L7.72904522,31.4912182 L7.72904522,15.5521792 L0.000169344345,15.5521792 L0.000169344345,8.79649091 L7.72904522,8.79649091 L7.72904522,0.869607792 L15.4646949,0.869607792 Z M126.357637,8.78413506 L126.357637,31.4719013 C126.357637,36.5430182 130.372792,40.669174 135.305792,40.669174 C140.24218,40.669174 144.255641,36.5430182 144.255641,31.4719013 L144.255641,31.4719013 L144.255641,8.78413506 L151.991291,8.78413506 L151.991291,31.4719013 C151.991291,40.9267325 144.506271,48.6186805 135.305792,48.6186805 C126.105314,48.6186805 118.620294,40.9267325 118.620294,31.4719013 L118.620294,31.4719013 L118.620294,8.78413506 L126.357637,8.78413506 Z M92.1228153,16.9422987 C86.0823025,16.9422987 81.1611559,21.9925325 81.1611559,28.200039 C81.1611559,34.4092857 86.0823025,39.456039 92.1228153,39.456039 C98.1633281,39.456039 103.076007,34.4092857 103.076007,28.200039 C103.076007,21.9925325 98.1633281,16.9422987 92.1228153,16.9422987 Z" id="Combined-Shape"></path>
        </g>
    </g>
</svg>