<svg id="tugut_pictos_website_konzeptvorstellung" data-name="tugut pictos website konzeptvorstellung" xmlns="http://www.w3.org/2000/svg" xmlns:xlink="http://www.w3.org/1999/xlink" viewBox="0 0 470 290"><defs><style>.cls-1,.cls-2,.cls-8,.cls-9{fill:none;}.cls-1{clip-rule:evenodd;}.cls-3{clip-path:url(#clip-path);}.cls-4{clip-path:url(#clip-path-2);}.cls-5{clip-path:url(#clip-path-3);}.cls-6{fill:#f2f4f3;}.cls-7{opacity:0.75;}.cls-8{stroke:#072514;}.cls-8,.cls-9{stroke-miterlimit:10;stroke-width:8px;}.cls-9{stroke:#50dd93;}.cls-10{clip-path:url(#clip-path-4);}</style><clipPath id="clip-path"><polygon class="cls-1" points="-169.5 196.67 -233.04 135.75 -199.66 216.35 -184.34 208.65 -169.5 196.67"/></clipPath><clipPath id="clip-path-2"><path id="SVGID" class="cls-1" d="M394.65,229.09H198.24c0,.82,196.14-69.09,196.28-69.09Z"/></clipPath><clipPath id="clip-path-3"><rect id="SVGID-2" data-name="SVGID" class="cls-2" x="-474.39" y="-1894.62" width="1770.07" height="2832.11"/></clipPath><clipPath id="clip-path-4"><path class="cls-1" d="M807.73,245V45.28Q783.79,145.15,759.84,245Z"/></clipPath></defs><title>tugut_picto-plattform</title><g id="picto-plattform"><g class="cls-4"><g class="cls-5"><polygon class="cls-6" points="193.32 177.08 193.32 234.01 399.56 234.01 399.56 134.01 193.32 177.08"/></g></g><g class="cls-7"><line class="cls-8" x1="347.37" y1="128.39" x2="136.5" y2="215"/><polyline class="cls-8" points="341.31 104.16 373.29 117.4 360.04 149.38"/></g><g class="cls-7"><line class="cls-8" x1="251.5" y1="141" x2="72.5" y2="215"/></g><line class="cls-9" x1="394.5" y1="232.62" x2="72.5" y2="232.62"/><line class="cls-9" x1="394.5" y1="245.01" x2="77.16" y2="245.01"/><line class="cls-9" x1="72.11" y1="57.66" x2="167.92" y2="57.66"/><line class="cls-9" x1="72.11" y1="45.28" x2="167.92" y2="45.28"/><path class="cls-9" d="M272.4,44.85a43,43,0,0,1-60.77,0"/><polyline class="cls-9" points="302.46 245.01 398.28 245.01 398.28 45.28 302.46 45.28"/><polyline class="cls-9" points="167.92 45.28 72.11 45.28 72.11 245.01 167.92 245.01"/></g></svg>